%TF.GenerationSoftware,KiCad,Pcbnew,10.0.5*%
%TF.CreationDate,2026-09-21T13:56:11+08:00*%
%TF.ProjectId,unisplit_orthosteno,756e6973-706c-4697-945f-6f7274686f73,rev?*%
%TF.SameCoordinates,Original*%
%TF.FileFunction,Legend,Top*%
%TF.FilePolarity,Positive*%
%FSLAX46Y46*%
G04 Gerber Fmt 4.6, Leading zero omitted, Abs format (unit mm)*
G04 Created by KiCad (PCBNEW 10.0.5) date 2026-09-21 13:56:11*
%MOMM*%
%LPD*%
G01*
G04 APERTURE LIST*
G04 Aperture macros list*
%AMHorizOval*
0 Thick line with rounded ends*
0 $1 width*
0 $2 $3 position (X,Y) of the first rounded end (center of the circle)*
0 $4 $5 position (X,Y) of the second rounded end (center of the circle)*
0 Add line between two ends*
20,1,$1,$2,$3,$4,$5,0*
0 Add two circle primitives to create the rounded ends*
1,1,$1,$2,$3*
1,1,$1,$4,$5*%
G04 Aperture macros list end*
%ADD10C,0.250000*%
%ADD11C,0.150000*%
%ADD12C,0.381000*%
%ADD13R,1.752600X1.752600*%
%ADD14C,1.752600*%
%ADD15C,0.500000*%
%ADD16C,0.000000*%
%ADD17C,1.700000*%
%ADD18C,3.987800*%
%ADD19C,1.200000*%
%ADD20C,1.750000*%
%ADD21HorizOval,2.250000X0.019771X0.290016X-0.019771X-0.290016X0*%
%ADD22C,2.000000*%
%ADD23C,2.250000*%
%ADD24HorizOval,2.250000X0.654995X0.730004X-0.654995X-0.730004X0*%
%ADD25C,3.800000*%
G04 APERTURE END LIST*
D10*
X141725897Y-86851190D02*
X140725897Y-86851190D01*
X141344944Y-86755952D02*
X141725897Y-86470238D01*
X141059230Y-86470238D02*
X141440182Y-86851190D01*
X141725897Y-86041666D02*
X140725897Y-86041666D01*
X141106849Y-86041666D02*
X141059230Y-85946428D01*
X141059230Y-85946428D02*
X141059230Y-85755952D01*
X141059230Y-85755952D02*
X141106849Y-85660714D01*
X141106849Y-85660714D02*
X141154468Y-85613095D01*
X141154468Y-85613095D02*
X141249706Y-85565476D01*
X141249706Y-85565476D02*
X141535420Y-85565476D01*
X141535420Y-85565476D02*
X141630658Y-85613095D01*
X141630658Y-85613095D02*
X141678278Y-85660714D01*
X141678278Y-85660714D02*
X141725897Y-85755952D01*
X141725897Y-85755952D02*
X141725897Y-85946428D01*
X141725897Y-85946428D02*
X141678278Y-86041666D01*
X140821135Y-85184523D02*
X140773516Y-85136904D01*
X140773516Y-85136904D02*
X140725897Y-85041666D01*
X140725897Y-85041666D02*
X140725897Y-84803571D01*
X140725897Y-84803571D02*
X140773516Y-84708333D01*
X140773516Y-84708333D02*
X140821135Y-84660714D01*
X140821135Y-84660714D02*
X140916373Y-84613095D01*
X140916373Y-84613095D02*
X141011611Y-84613095D01*
X141011611Y-84613095D02*
X141154468Y-84660714D01*
X141154468Y-84660714D02*
X141725897Y-85232142D01*
X141725897Y-85232142D02*
X141725897Y-84613095D01*
X140725897Y-83994047D02*
X140725897Y-83898809D01*
X140725897Y-83898809D02*
X140773516Y-83803571D01*
X140773516Y-83803571D02*
X140821135Y-83755952D01*
X140821135Y-83755952D02*
X140916373Y-83708333D01*
X140916373Y-83708333D02*
X141106849Y-83660714D01*
X141106849Y-83660714D02*
X141344944Y-83660714D01*
X141344944Y-83660714D02*
X141535420Y-83708333D01*
X141535420Y-83708333D02*
X141630658Y-83755952D01*
X141630658Y-83755952D02*
X141678278Y-83803571D01*
X141678278Y-83803571D02*
X141725897Y-83898809D01*
X141725897Y-83898809D02*
X141725897Y-83994047D01*
X141725897Y-83994047D02*
X141678278Y-84089285D01*
X141678278Y-84089285D02*
X141630658Y-84136904D01*
X141630658Y-84136904D02*
X141535420Y-84184523D01*
X141535420Y-84184523D02*
X141344944Y-84232142D01*
X141344944Y-84232142D02*
X141106849Y-84232142D01*
X141106849Y-84232142D02*
X140916373Y-84184523D01*
X140916373Y-84184523D02*
X140821135Y-84136904D01*
X140821135Y-84136904D02*
X140773516Y-84089285D01*
X140773516Y-84089285D02*
X140725897Y-83994047D01*
X141059230Y-82803571D02*
X141725897Y-82803571D01*
X140678278Y-83041666D02*
X141392563Y-83279761D01*
X141392563Y-83279761D02*
X141392563Y-82660714D01*
X140725897Y-82089285D02*
X140725897Y-81994047D01*
X140725897Y-81994047D02*
X140773516Y-81898809D01*
X140773516Y-81898809D02*
X140821135Y-81851190D01*
X140821135Y-81851190D02*
X140916373Y-81803571D01*
X140916373Y-81803571D02*
X141106849Y-81755952D01*
X141106849Y-81755952D02*
X141344944Y-81755952D01*
X141344944Y-81755952D02*
X141535420Y-81803571D01*
X141535420Y-81803571D02*
X141630658Y-81851190D01*
X141630658Y-81851190D02*
X141678278Y-81898809D01*
X141678278Y-81898809D02*
X141725897Y-81994047D01*
X141725897Y-81994047D02*
X141725897Y-82089285D01*
X141725897Y-82089285D02*
X141678278Y-82184523D01*
X141678278Y-82184523D02*
X141630658Y-82232142D01*
X141630658Y-82232142D02*
X141535420Y-82279761D01*
X141535420Y-82279761D02*
X141344944Y-82327380D01*
X141344944Y-82327380D02*
X141106849Y-82327380D01*
X141106849Y-82327380D02*
X140916373Y-82279761D01*
X140916373Y-82279761D02*
X140821135Y-82232142D01*
X140821135Y-82232142D02*
X140773516Y-82184523D01*
X140773516Y-82184523D02*
X140725897Y-82089285D01*
X141725897Y-80422618D02*
X141678278Y-80517856D01*
X141678278Y-80517856D02*
X141630658Y-80565475D01*
X141630658Y-80565475D02*
X141535420Y-80613094D01*
X141535420Y-80613094D02*
X141249706Y-80613094D01*
X141249706Y-80613094D02*
X141154468Y-80565475D01*
X141154468Y-80565475D02*
X141106849Y-80517856D01*
X141106849Y-80517856D02*
X141059230Y-80422618D01*
X141059230Y-80422618D02*
X141059230Y-80279761D01*
X141059230Y-80279761D02*
X141106849Y-80184523D01*
X141106849Y-80184523D02*
X141154468Y-80136904D01*
X141154468Y-80136904D02*
X141249706Y-80089285D01*
X141249706Y-80089285D02*
X141535420Y-80089285D01*
X141535420Y-80089285D02*
X141630658Y-80136904D01*
X141630658Y-80136904D02*
X141678278Y-80184523D01*
X141678278Y-80184523D02*
X141725897Y-80279761D01*
X141725897Y-80279761D02*
X141725897Y-80422618D01*
X141059230Y-79660713D02*
X141725897Y-79660713D01*
X141154468Y-79660713D02*
X141106849Y-79613094D01*
X141106849Y-79613094D02*
X141059230Y-79517856D01*
X141059230Y-79517856D02*
X141059230Y-79374999D01*
X141059230Y-79374999D02*
X141106849Y-79279761D01*
X141106849Y-79279761D02*
X141202087Y-79232142D01*
X141202087Y-79232142D02*
X141725897Y-79232142D01*
X141059230Y-78136903D02*
X141059230Y-77755951D01*
X140725897Y-77994046D02*
X141583039Y-77994046D01*
X141583039Y-77994046D02*
X141678278Y-77946427D01*
X141678278Y-77946427D02*
X141725897Y-77851189D01*
X141725897Y-77851189D02*
X141725897Y-77755951D01*
X141725897Y-77422617D02*
X140725897Y-77422617D01*
X141725897Y-76994046D02*
X141202087Y-76994046D01*
X141202087Y-76994046D02*
X141106849Y-77041665D01*
X141106849Y-77041665D02*
X141059230Y-77136903D01*
X141059230Y-77136903D02*
X141059230Y-77279760D01*
X141059230Y-77279760D02*
X141106849Y-77374998D01*
X141106849Y-77374998D02*
X141154468Y-77422617D01*
X141725897Y-76517855D02*
X141059230Y-76517855D01*
X140725897Y-76517855D02*
X140773516Y-76565474D01*
X140773516Y-76565474D02*
X140821135Y-76517855D01*
X140821135Y-76517855D02*
X140773516Y-76470236D01*
X140773516Y-76470236D02*
X140725897Y-76517855D01*
X140725897Y-76517855D02*
X140821135Y-76517855D01*
X141678278Y-76089284D02*
X141725897Y-75994046D01*
X141725897Y-75994046D02*
X141725897Y-75803570D01*
X141725897Y-75803570D02*
X141678278Y-75708332D01*
X141678278Y-75708332D02*
X141583039Y-75660713D01*
X141583039Y-75660713D02*
X141535420Y-75660713D01*
X141535420Y-75660713D02*
X141440182Y-75708332D01*
X141440182Y-75708332D02*
X141392563Y-75803570D01*
X141392563Y-75803570D02*
X141392563Y-75946427D01*
X141392563Y-75946427D02*
X141344944Y-76041665D01*
X141344944Y-76041665D02*
X141249706Y-76089284D01*
X141249706Y-76089284D02*
X141202087Y-76089284D01*
X141202087Y-76089284D02*
X141106849Y-76041665D01*
X141106849Y-76041665D02*
X141059230Y-75946427D01*
X141059230Y-75946427D02*
X141059230Y-75803570D01*
X141059230Y-75803570D02*
X141106849Y-75708332D01*
X141678278Y-74517855D02*
X141725897Y-74422617D01*
X141725897Y-74422617D02*
X141725897Y-74232141D01*
X141725897Y-74232141D02*
X141678278Y-74136903D01*
X141678278Y-74136903D02*
X141583039Y-74089284D01*
X141583039Y-74089284D02*
X141535420Y-74089284D01*
X141535420Y-74089284D02*
X141440182Y-74136903D01*
X141440182Y-74136903D02*
X141392563Y-74232141D01*
X141392563Y-74232141D02*
X141392563Y-74374998D01*
X141392563Y-74374998D02*
X141344944Y-74470236D01*
X141344944Y-74470236D02*
X141249706Y-74517855D01*
X141249706Y-74517855D02*
X141202087Y-74517855D01*
X141202087Y-74517855D02*
X141106849Y-74470236D01*
X141106849Y-74470236D02*
X141059230Y-74374998D01*
X141059230Y-74374998D02*
X141059230Y-74232141D01*
X141059230Y-74232141D02*
X141106849Y-74136903D01*
X141725897Y-73660712D02*
X141059230Y-73660712D01*
X140725897Y-73660712D02*
X140773516Y-73708331D01*
X140773516Y-73708331D02*
X140821135Y-73660712D01*
X140821135Y-73660712D02*
X140773516Y-73613093D01*
X140773516Y-73613093D02*
X140725897Y-73660712D01*
X140725897Y-73660712D02*
X140821135Y-73660712D01*
X141725897Y-72755951D02*
X140725897Y-72755951D01*
X141678278Y-72755951D02*
X141725897Y-72851189D01*
X141725897Y-72851189D02*
X141725897Y-73041665D01*
X141725897Y-73041665D02*
X141678278Y-73136903D01*
X141678278Y-73136903D02*
X141630658Y-73184522D01*
X141630658Y-73184522D02*
X141535420Y-73232141D01*
X141535420Y-73232141D02*
X141249706Y-73232141D01*
X141249706Y-73232141D02*
X141154468Y-73184522D01*
X141154468Y-73184522D02*
X141106849Y-73136903D01*
X141106849Y-73136903D02*
X141059230Y-73041665D01*
X141059230Y-73041665D02*
X141059230Y-72851189D01*
X141059230Y-72851189D02*
X141106849Y-72755951D01*
X141678278Y-71898808D02*
X141725897Y-71994046D01*
X141725897Y-71994046D02*
X141725897Y-72184522D01*
X141725897Y-72184522D02*
X141678278Y-72279760D01*
X141678278Y-72279760D02*
X141583039Y-72327379D01*
X141583039Y-72327379D02*
X141202087Y-72327379D01*
X141202087Y-72327379D02*
X141106849Y-72279760D01*
X141106849Y-72279760D02*
X141059230Y-72184522D01*
X141059230Y-72184522D02*
X141059230Y-71994046D01*
X141059230Y-71994046D02*
X141106849Y-71898808D01*
X141106849Y-71898808D02*
X141202087Y-71851189D01*
X141202087Y-71851189D02*
X141297325Y-71851189D01*
X141297325Y-71851189D02*
X141392563Y-72327379D01*
X143288222Y-85089285D02*
X143335841Y-84994047D01*
X143335841Y-84994047D02*
X143335841Y-84803571D01*
X143335841Y-84803571D02*
X143288222Y-84708333D01*
X143288222Y-84708333D02*
X143192983Y-84660714D01*
X143192983Y-84660714D02*
X143145364Y-84660714D01*
X143145364Y-84660714D02*
X143050126Y-84708333D01*
X143050126Y-84708333D02*
X143002507Y-84803571D01*
X143002507Y-84803571D02*
X143002507Y-84946428D01*
X143002507Y-84946428D02*
X142954888Y-85041666D01*
X142954888Y-85041666D02*
X142859650Y-85089285D01*
X142859650Y-85089285D02*
X142812031Y-85089285D01*
X142812031Y-85089285D02*
X142716793Y-85041666D01*
X142716793Y-85041666D02*
X142669174Y-84946428D01*
X142669174Y-84946428D02*
X142669174Y-84803571D01*
X142669174Y-84803571D02*
X142716793Y-84708333D01*
X143335841Y-84232142D02*
X142669174Y-84232142D01*
X142764412Y-84232142D02*
X142716793Y-84184523D01*
X142716793Y-84184523D02*
X142669174Y-84089285D01*
X142669174Y-84089285D02*
X142669174Y-83946428D01*
X142669174Y-83946428D02*
X142716793Y-83851190D01*
X142716793Y-83851190D02*
X142812031Y-83803571D01*
X142812031Y-83803571D02*
X143335841Y-83803571D01*
X142812031Y-83803571D02*
X142716793Y-83755952D01*
X142716793Y-83755952D02*
X142669174Y-83660714D01*
X142669174Y-83660714D02*
X142669174Y-83517857D01*
X142669174Y-83517857D02*
X142716793Y-83422618D01*
X142716793Y-83422618D02*
X142812031Y-83374999D01*
X142812031Y-83374999D02*
X143335841Y-83374999D01*
X143335841Y-82755952D02*
X143288222Y-82851190D01*
X143288222Y-82851190D02*
X143240602Y-82898809D01*
X143240602Y-82898809D02*
X143145364Y-82946428D01*
X143145364Y-82946428D02*
X142859650Y-82946428D01*
X142859650Y-82946428D02*
X142764412Y-82898809D01*
X142764412Y-82898809D02*
X142716793Y-82851190D01*
X142716793Y-82851190D02*
X142669174Y-82755952D01*
X142669174Y-82755952D02*
X142669174Y-82613095D01*
X142669174Y-82613095D02*
X142716793Y-82517857D01*
X142716793Y-82517857D02*
X142764412Y-82470238D01*
X142764412Y-82470238D02*
X142859650Y-82422619D01*
X142859650Y-82422619D02*
X143145364Y-82422619D01*
X143145364Y-82422619D02*
X143240602Y-82470238D01*
X143240602Y-82470238D02*
X143288222Y-82517857D01*
X143288222Y-82517857D02*
X143335841Y-82613095D01*
X143335841Y-82613095D02*
X143335841Y-82755952D01*
X143335841Y-81851190D02*
X143288222Y-81946428D01*
X143288222Y-81946428D02*
X143240602Y-81994047D01*
X143240602Y-81994047D02*
X143145364Y-82041666D01*
X143145364Y-82041666D02*
X142859650Y-82041666D01*
X142859650Y-82041666D02*
X142764412Y-81994047D01*
X142764412Y-81994047D02*
X142716793Y-81946428D01*
X142716793Y-81946428D02*
X142669174Y-81851190D01*
X142669174Y-81851190D02*
X142669174Y-81708333D01*
X142669174Y-81708333D02*
X142716793Y-81613095D01*
X142716793Y-81613095D02*
X142764412Y-81565476D01*
X142764412Y-81565476D02*
X142859650Y-81517857D01*
X142859650Y-81517857D02*
X143145364Y-81517857D01*
X143145364Y-81517857D02*
X143240602Y-81565476D01*
X143240602Y-81565476D02*
X143288222Y-81613095D01*
X143288222Y-81613095D02*
X143335841Y-81708333D01*
X143335841Y-81708333D02*
X143335841Y-81851190D01*
X142669174Y-81232142D02*
X142669174Y-80851190D01*
X142335841Y-81089285D02*
X143192983Y-81089285D01*
X143192983Y-81089285D02*
X143288222Y-81041666D01*
X143288222Y-81041666D02*
X143335841Y-80946428D01*
X143335841Y-80946428D02*
X143335841Y-80851190D01*
X143335841Y-80517856D02*
X142335841Y-80517856D01*
X143335841Y-80089285D02*
X142812031Y-80089285D01*
X142812031Y-80089285D02*
X142716793Y-80136904D01*
X142716793Y-80136904D02*
X142669174Y-80232142D01*
X142669174Y-80232142D02*
X142669174Y-80374999D01*
X142669174Y-80374999D02*
X142716793Y-80470237D01*
X142716793Y-80470237D02*
X142764412Y-80517856D01*
X143288222Y-78898808D02*
X143335841Y-78803570D01*
X143335841Y-78803570D02*
X143335841Y-78613094D01*
X143335841Y-78613094D02*
X143288222Y-78517856D01*
X143288222Y-78517856D02*
X143192983Y-78470237D01*
X143192983Y-78470237D02*
X143145364Y-78470237D01*
X143145364Y-78470237D02*
X143050126Y-78517856D01*
X143050126Y-78517856D02*
X143002507Y-78613094D01*
X143002507Y-78613094D02*
X143002507Y-78755951D01*
X143002507Y-78755951D02*
X142954888Y-78851189D01*
X142954888Y-78851189D02*
X142859650Y-78898808D01*
X142859650Y-78898808D02*
X142812031Y-78898808D01*
X142812031Y-78898808D02*
X142716793Y-78851189D01*
X142716793Y-78851189D02*
X142669174Y-78755951D01*
X142669174Y-78755951D02*
X142669174Y-78613094D01*
X142669174Y-78613094D02*
X142716793Y-78517856D01*
X143335841Y-78041665D02*
X142669174Y-78041665D01*
X142335841Y-78041665D02*
X142383460Y-78089284D01*
X142383460Y-78089284D02*
X142431079Y-78041665D01*
X142431079Y-78041665D02*
X142383460Y-77994046D01*
X142383460Y-77994046D02*
X142335841Y-78041665D01*
X142335841Y-78041665D02*
X142431079Y-78041665D01*
X143335841Y-77136904D02*
X142335841Y-77136904D01*
X143288222Y-77136904D02*
X143335841Y-77232142D01*
X143335841Y-77232142D02*
X143335841Y-77422618D01*
X143335841Y-77422618D02*
X143288222Y-77517856D01*
X143288222Y-77517856D02*
X143240602Y-77565475D01*
X143240602Y-77565475D02*
X143145364Y-77613094D01*
X143145364Y-77613094D02*
X142859650Y-77613094D01*
X142859650Y-77613094D02*
X142764412Y-77565475D01*
X142764412Y-77565475D02*
X142716793Y-77517856D01*
X142716793Y-77517856D02*
X142669174Y-77422618D01*
X142669174Y-77422618D02*
X142669174Y-77232142D01*
X142669174Y-77232142D02*
X142716793Y-77136904D01*
X143288222Y-76279761D02*
X143335841Y-76374999D01*
X143335841Y-76374999D02*
X143335841Y-76565475D01*
X143335841Y-76565475D02*
X143288222Y-76660713D01*
X143288222Y-76660713D02*
X143192983Y-76708332D01*
X143192983Y-76708332D02*
X142812031Y-76708332D01*
X142812031Y-76708332D02*
X142716793Y-76660713D01*
X142716793Y-76660713D02*
X142669174Y-76565475D01*
X142669174Y-76565475D02*
X142669174Y-76374999D01*
X142669174Y-76374999D02*
X142716793Y-76279761D01*
X142716793Y-76279761D02*
X142812031Y-76232142D01*
X142812031Y-76232142D02*
X142907269Y-76232142D01*
X142907269Y-76232142D02*
X143002507Y-76708332D01*
X142669174Y-74613094D02*
X143335841Y-74613094D01*
X142669174Y-75041665D02*
X143192983Y-75041665D01*
X143192983Y-75041665D02*
X143288222Y-74994046D01*
X143288222Y-74994046D02*
X143335841Y-74898808D01*
X143335841Y-74898808D02*
X143335841Y-74755951D01*
X143335841Y-74755951D02*
X143288222Y-74660713D01*
X143288222Y-74660713D02*
X143240602Y-74613094D01*
X142669174Y-74136903D02*
X143669174Y-74136903D01*
X142716793Y-74136903D02*
X142669174Y-74041665D01*
X142669174Y-74041665D02*
X142669174Y-73851189D01*
X142669174Y-73851189D02*
X142716793Y-73755951D01*
X142716793Y-73755951D02*
X142764412Y-73708332D01*
X142764412Y-73708332D02*
X142859650Y-73660713D01*
X142859650Y-73660713D02*
X143145364Y-73660713D01*
X143145364Y-73660713D02*
X143240602Y-73708332D01*
X143240602Y-73708332D02*
X143288222Y-73755951D01*
X143288222Y-73755951D02*
X143335841Y-73851189D01*
X143335841Y-73851189D02*
X143335841Y-74041665D01*
X143335841Y-74041665D02*
X143288222Y-74136903D01*
D11*
X147504155Y-65366545D02*
X147580345Y-65366545D01*
X147580345Y-65366545D02*
X147656536Y-65404640D01*
X147656536Y-65404640D02*
X147694631Y-65442735D01*
X147694631Y-65442735D02*
X147732726Y-65518926D01*
X147732726Y-65518926D02*
X147770821Y-65671307D01*
X147770821Y-65671307D02*
X147770821Y-65861783D01*
X147770821Y-65861783D02*
X147732726Y-66014164D01*
X147732726Y-66014164D02*
X147694631Y-66090354D01*
X147694631Y-66090354D02*
X147656536Y-66128450D01*
X147656536Y-66128450D02*
X147580345Y-66166545D01*
X147580345Y-66166545D02*
X147504155Y-66166545D01*
X147504155Y-66166545D02*
X147427964Y-66128450D01*
X147427964Y-66128450D02*
X147389869Y-66090354D01*
X147389869Y-66090354D02*
X147351774Y-66014164D01*
X147351774Y-66014164D02*
X147313678Y-65861783D01*
X147313678Y-65861783D02*
X147313678Y-65671307D01*
X147313678Y-65671307D02*
X147351774Y-65518926D01*
X147351774Y-65518926D02*
X147389869Y-65442735D01*
X147389869Y-65442735D02*
X147427964Y-65404640D01*
X147427964Y-65404640D02*
X147504155Y-65366545D01*
X147770821Y-68706545D02*
X147313678Y-68706545D01*
X147542250Y-68706545D02*
X147542250Y-67906545D01*
X147542250Y-67906545D02*
X147466059Y-68020830D01*
X147466059Y-68020830D02*
X147389869Y-68097021D01*
X147389869Y-68097021D02*
X147313678Y-68135116D01*
X146932726Y-70484640D02*
X146856536Y-70446545D01*
X146856536Y-70446545D02*
X146742250Y-70446545D01*
X146742250Y-70446545D02*
X146627964Y-70484640D01*
X146627964Y-70484640D02*
X146551774Y-70560830D01*
X146551774Y-70560830D02*
X146513679Y-70637021D01*
X146513679Y-70637021D02*
X146475583Y-70789402D01*
X146475583Y-70789402D02*
X146475583Y-70903688D01*
X146475583Y-70903688D02*
X146513679Y-71056069D01*
X146513679Y-71056069D02*
X146551774Y-71132259D01*
X146551774Y-71132259D02*
X146627964Y-71208450D01*
X146627964Y-71208450D02*
X146742250Y-71246545D01*
X146742250Y-71246545D02*
X146818441Y-71246545D01*
X146818441Y-71246545D02*
X146932726Y-71208450D01*
X146932726Y-71208450D02*
X146970822Y-71170354D01*
X146970822Y-71170354D02*
X146970822Y-70903688D01*
X146970822Y-70903688D02*
X146818441Y-70903688D01*
X147313679Y-71246545D02*
X147313679Y-70446545D01*
X147313679Y-70446545D02*
X147770822Y-71246545D01*
X147770822Y-71246545D02*
X147770822Y-70446545D01*
X148151774Y-71246545D02*
X148151774Y-70446545D01*
X148151774Y-70446545D02*
X148342250Y-70446545D01*
X148342250Y-70446545D02*
X148456536Y-70484640D01*
X148456536Y-70484640D02*
X148532726Y-70560830D01*
X148532726Y-70560830D02*
X148570821Y-70637021D01*
X148570821Y-70637021D02*
X148608917Y-70789402D01*
X148608917Y-70789402D02*
X148608917Y-70903688D01*
X148608917Y-70903688D02*
X148570821Y-71056069D01*
X148570821Y-71056069D02*
X148532726Y-71132259D01*
X148532726Y-71132259D02*
X148456536Y-71208450D01*
X148456536Y-71208450D02*
X148342250Y-71246545D01*
X148342250Y-71246545D02*
X148151774Y-71246545D01*
X146932726Y-73024640D02*
X146856536Y-72986545D01*
X146856536Y-72986545D02*
X146742250Y-72986545D01*
X146742250Y-72986545D02*
X146627964Y-73024640D01*
X146627964Y-73024640D02*
X146551774Y-73100830D01*
X146551774Y-73100830D02*
X146513679Y-73177021D01*
X146513679Y-73177021D02*
X146475583Y-73329402D01*
X146475583Y-73329402D02*
X146475583Y-73443688D01*
X146475583Y-73443688D02*
X146513679Y-73596069D01*
X146513679Y-73596069D02*
X146551774Y-73672259D01*
X146551774Y-73672259D02*
X146627964Y-73748450D01*
X146627964Y-73748450D02*
X146742250Y-73786545D01*
X146742250Y-73786545D02*
X146818441Y-73786545D01*
X146818441Y-73786545D02*
X146932726Y-73748450D01*
X146932726Y-73748450D02*
X146970822Y-73710354D01*
X146970822Y-73710354D02*
X146970822Y-73443688D01*
X146970822Y-73443688D02*
X146818441Y-73443688D01*
X147313679Y-73786545D02*
X147313679Y-72986545D01*
X147313679Y-72986545D02*
X147770822Y-73786545D01*
X147770822Y-73786545D02*
X147770822Y-72986545D01*
X148151774Y-73786545D02*
X148151774Y-72986545D01*
X148151774Y-72986545D02*
X148342250Y-72986545D01*
X148342250Y-72986545D02*
X148456536Y-73024640D01*
X148456536Y-73024640D02*
X148532726Y-73100830D01*
X148532726Y-73100830D02*
X148570821Y-73177021D01*
X148570821Y-73177021D02*
X148608917Y-73329402D01*
X148608917Y-73329402D02*
X148608917Y-73443688D01*
X148608917Y-73443688D02*
X148570821Y-73596069D01*
X148570821Y-73596069D02*
X148532726Y-73672259D01*
X148532726Y-73672259D02*
X148456536Y-73748450D01*
X148456536Y-73748450D02*
X148342250Y-73786545D01*
X148342250Y-73786545D02*
X148151774Y-73786545D01*
X147313678Y-75602735D02*
X147351774Y-75564640D01*
X147351774Y-75564640D02*
X147427964Y-75526545D01*
X147427964Y-75526545D02*
X147618440Y-75526545D01*
X147618440Y-75526545D02*
X147694631Y-75564640D01*
X147694631Y-75564640D02*
X147732726Y-75602735D01*
X147732726Y-75602735D02*
X147770821Y-75678926D01*
X147770821Y-75678926D02*
X147770821Y-75755116D01*
X147770821Y-75755116D02*
X147732726Y-75869402D01*
X147732726Y-75869402D02*
X147275583Y-76326545D01*
X147275583Y-76326545D02*
X147770821Y-76326545D01*
X147275583Y-78066545D02*
X147770821Y-78066545D01*
X147770821Y-78066545D02*
X147504155Y-78371307D01*
X147504155Y-78371307D02*
X147618440Y-78371307D01*
X147618440Y-78371307D02*
X147694631Y-78409402D01*
X147694631Y-78409402D02*
X147732726Y-78447497D01*
X147732726Y-78447497D02*
X147770821Y-78523688D01*
X147770821Y-78523688D02*
X147770821Y-78714164D01*
X147770821Y-78714164D02*
X147732726Y-78790354D01*
X147732726Y-78790354D02*
X147694631Y-78828450D01*
X147694631Y-78828450D02*
X147618440Y-78866545D01*
X147618440Y-78866545D02*
X147389869Y-78866545D01*
X147389869Y-78866545D02*
X147313678Y-78828450D01*
X147313678Y-78828450D02*
X147275583Y-78790354D01*
X147694631Y-80873211D02*
X147694631Y-81406545D01*
X147504155Y-80568450D02*
X147313678Y-81139878D01*
X147313678Y-81139878D02*
X147808917Y-81139878D01*
X147732726Y-83146545D02*
X147351774Y-83146545D01*
X147351774Y-83146545D02*
X147313678Y-83527497D01*
X147313678Y-83527497D02*
X147351774Y-83489402D01*
X147351774Y-83489402D02*
X147427964Y-83451307D01*
X147427964Y-83451307D02*
X147618440Y-83451307D01*
X147618440Y-83451307D02*
X147694631Y-83489402D01*
X147694631Y-83489402D02*
X147732726Y-83527497D01*
X147732726Y-83527497D02*
X147770821Y-83603688D01*
X147770821Y-83603688D02*
X147770821Y-83794164D01*
X147770821Y-83794164D02*
X147732726Y-83870354D01*
X147732726Y-83870354D02*
X147694631Y-83908450D01*
X147694631Y-83908450D02*
X147618440Y-83946545D01*
X147618440Y-83946545D02*
X147427964Y-83946545D01*
X147427964Y-83946545D02*
X147351774Y-83908450D01*
X147351774Y-83908450D02*
X147313678Y-83870354D01*
X147694631Y-85686545D02*
X147542250Y-85686545D01*
X147542250Y-85686545D02*
X147466059Y-85724640D01*
X147466059Y-85724640D02*
X147427964Y-85762735D01*
X147427964Y-85762735D02*
X147351774Y-85877021D01*
X147351774Y-85877021D02*
X147313678Y-86029402D01*
X147313678Y-86029402D02*
X147313678Y-86334164D01*
X147313678Y-86334164D02*
X147351774Y-86410354D01*
X147351774Y-86410354D02*
X147389869Y-86448450D01*
X147389869Y-86448450D02*
X147466059Y-86486545D01*
X147466059Y-86486545D02*
X147618440Y-86486545D01*
X147618440Y-86486545D02*
X147694631Y-86448450D01*
X147694631Y-86448450D02*
X147732726Y-86410354D01*
X147732726Y-86410354D02*
X147770821Y-86334164D01*
X147770821Y-86334164D02*
X147770821Y-86143688D01*
X147770821Y-86143688D02*
X147732726Y-86067497D01*
X147732726Y-86067497D02*
X147694631Y-86029402D01*
X147694631Y-86029402D02*
X147618440Y-85991307D01*
X147618440Y-85991307D02*
X147466059Y-85991307D01*
X147466059Y-85991307D02*
X147389869Y-86029402D01*
X147389869Y-86029402D02*
X147351774Y-86067497D01*
X147351774Y-86067497D02*
X147313678Y-86143688D01*
X147275583Y-88226545D02*
X147808917Y-88226545D01*
X147808917Y-88226545D02*
X147466059Y-89026545D01*
X147466059Y-91109402D02*
X147389869Y-91071307D01*
X147389869Y-91071307D02*
X147351774Y-91033211D01*
X147351774Y-91033211D02*
X147313678Y-90957021D01*
X147313678Y-90957021D02*
X147313678Y-90918926D01*
X147313678Y-90918926D02*
X147351774Y-90842735D01*
X147351774Y-90842735D02*
X147389869Y-90804640D01*
X147389869Y-90804640D02*
X147466059Y-90766545D01*
X147466059Y-90766545D02*
X147618440Y-90766545D01*
X147618440Y-90766545D02*
X147694631Y-90804640D01*
X147694631Y-90804640D02*
X147732726Y-90842735D01*
X147732726Y-90842735D02*
X147770821Y-90918926D01*
X147770821Y-90918926D02*
X147770821Y-90957021D01*
X147770821Y-90957021D02*
X147732726Y-91033211D01*
X147732726Y-91033211D02*
X147694631Y-91071307D01*
X147694631Y-91071307D02*
X147618440Y-91109402D01*
X147618440Y-91109402D02*
X147466059Y-91109402D01*
X147466059Y-91109402D02*
X147389869Y-91147497D01*
X147389869Y-91147497D02*
X147351774Y-91185592D01*
X147351774Y-91185592D02*
X147313678Y-91261783D01*
X147313678Y-91261783D02*
X147313678Y-91414164D01*
X147313678Y-91414164D02*
X147351774Y-91490354D01*
X147351774Y-91490354D02*
X147389869Y-91528450D01*
X147389869Y-91528450D02*
X147466059Y-91566545D01*
X147466059Y-91566545D02*
X147618440Y-91566545D01*
X147618440Y-91566545D02*
X147694631Y-91528450D01*
X147694631Y-91528450D02*
X147732726Y-91490354D01*
X147732726Y-91490354D02*
X147770821Y-91414164D01*
X147770821Y-91414164D02*
X147770821Y-91261783D01*
X147770821Y-91261783D02*
X147732726Y-91185592D01*
X147732726Y-91185592D02*
X147694631Y-91147497D01*
X147694631Y-91147497D02*
X147618440Y-91109402D01*
X147389869Y-94106545D02*
X147542250Y-94106545D01*
X147542250Y-94106545D02*
X147618440Y-94068450D01*
X147618440Y-94068450D02*
X147656536Y-94030354D01*
X147656536Y-94030354D02*
X147732726Y-93916069D01*
X147732726Y-93916069D02*
X147770821Y-93763688D01*
X147770821Y-93763688D02*
X147770821Y-93458926D01*
X147770821Y-93458926D02*
X147732726Y-93382735D01*
X147732726Y-93382735D02*
X147694631Y-93344640D01*
X147694631Y-93344640D02*
X147618440Y-93306545D01*
X147618440Y-93306545D02*
X147466059Y-93306545D01*
X147466059Y-93306545D02*
X147389869Y-93344640D01*
X147389869Y-93344640D02*
X147351774Y-93382735D01*
X147351774Y-93382735D02*
X147313678Y-93458926D01*
X147313678Y-93458926D02*
X147313678Y-93649402D01*
X147313678Y-93649402D02*
X147351774Y-93725592D01*
X147351774Y-93725592D02*
X147389869Y-93763688D01*
X147389869Y-93763688D02*
X147466059Y-93801783D01*
X147466059Y-93801783D02*
X147618440Y-93801783D01*
X147618440Y-93801783D02*
X147694631Y-93763688D01*
X147694631Y-93763688D02*
X147732726Y-93725592D01*
X147732726Y-93725592D02*
X147770821Y-93649402D01*
X136467868Y-94106545D02*
X136010725Y-94106545D01*
X136239297Y-94106545D02*
X136239297Y-93306545D01*
X136239297Y-93306545D02*
X136163106Y-93420830D01*
X136163106Y-93420830D02*
X136086916Y-93497021D01*
X136086916Y-93497021D02*
X136010725Y-93535116D01*
X136963107Y-93306545D02*
X137039297Y-93306545D01*
X137039297Y-93306545D02*
X137115488Y-93344640D01*
X137115488Y-93344640D02*
X137153583Y-93382735D01*
X137153583Y-93382735D02*
X137191678Y-93458926D01*
X137191678Y-93458926D02*
X137229773Y-93611307D01*
X137229773Y-93611307D02*
X137229773Y-93801783D01*
X137229773Y-93801783D02*
X137191678Y-93954164D01*
X137191678Y-93954164D02*
X137153583Y-94030354D01*
X137153583Y-94030354D02*
X137115488Y-94068450D01*
X137115488Y-94068450D02*
X137039297Y-94106545D01*
X137039297Y-94106545D02*
X136963107Y-94106545D01*
X136963107Y-94106545D02*
X136886916Y-94068450D01*
X136886916Y-94068450D02*
X136848821Y-94030354D01*
X136848821Y-94030354D02*
X136810726Y-93954164D01*
X136810726Y-93954164D02*
X136772630Y-93801783D01*
X136772630Y-93801783D02*
X136772630Y-93611307D01*
X136772630Y-93611307D02*
X136810726Y-93458926D01*
X136810726Y-93458926D02*
X136848821Y-93382735D01*
X136848821Y-93382735D02*
X136886916Y-93344640D01*
X136886916Y-93344640D02*
X136963107Y-93306545D01*
X136467868Y-91566545D02*
X136010725Y-91566545D01*
X136239297Y-91566545D02*
X136239297Y-90766545D01*
X136239297Y-90766545D02*
X136163106Y-90880830D01*
X136163106Y-90880830D02*
X136086916Y-90957021D01*
X136086916Y-90957021D02*
X136010725Y-90995116D01*
X136848821Y-91566545D02*
X137001202Y-91566545D01*
X137001202Y-91566545D02*
X137077392Y-91528450D01*
X137077392Y-91528450D02*
X137115488Y-91490354D01*
X137115488Y-91490354D02*
X137191678Y-91376069D01*
X137191678Y-91376069D02*
X137229773Y-91223688D01*
X137229773Y-91223688D02*
X137229773Y-90918926D01*
X137229773Y-90918926D02*
X137191678Y-90842735D01*
X137191678Y-90842735D02*
X137153583Y-90804640D01*
X137153583Y-90804640D02*
X137077392Y-90766545D01*
X137077392Y-90766545D02*
X136925011Y-90766545D01*
X136925011Y-90766545D02*
X136848821Y-90804640D01*
X136848821Y-90804640D02*
X136810726Y-90842735D01*
X136810726Y-90842735D02*
X136772630Y-90918926D01*
X136772630Y-90918926D02*
X136772630Y-91109402D01*
X136772630Y-91109402D02*
X136810726Y-91185592D01*
X136810726Y-91185592D02*
X136848821Y-91223688D01*
X136848821Y-91223688D02*
X136925011Y-91261783D01*
X136925011Y-91261783D02*
X137077392Y-91261783D01*
X137077392Y-91261783D02*
X137153583Y-91223688D01*
X137153583Y-91223688D02*
X137191678Y-91185592D01*
X137191678Y-91185592D02*
X137229773Y-91109402D01*
X136010725Y-88302735D02*
X136048821Y-88264640D01*
X136048821Y-88264640D02*
X136125011Y-88226545D01*
X136125011Y-88226545D02*
X136315487Y-88226545D01*
X136315487Y-88226545D02*
X136391678Y-88264640D01*
X136391678Y-88264640D02*
X136429773Y-88302735D01*
X136429773Y-88302735D02*
X136467868Y-88378926D01*
X136467868Y-88378926D02*
X136467868Y-88455116D01*
X136467868Y-88455116D02*
X136429773Y-88569402D01*
X136429773Y-88569402D02*
X135972630Y-89026545D01*
X135972630Y-89026545D02*
X136467868Y-89026545D01*
X136963107Y-88226545D02*
X137039297Y-88226545D01*
X137039297Y-88226545D02*
X137115488Y-88264640D01*
X137115488Y-88264640D02*
X137153583Y-88302735D01*
X137153583Y-88302735D02*
X137191678Y-88378926D01*
X137191678Y-88378926D02*
X137229773Y-88531307D01*
X137229773Y-88531307D02*
X137229773Y-88721783D01*
X137229773Y-88721783D02*
X137191678Y-88874164D01*
X137191678Y-88874164D02*
X137153583Y-88950354D01*
X137153583Y-88950354D02*
X137115488Y-88988450D01*
X137115488Y-88988450D02*
X137039297Y-89026545D01*
X137039297Y-89026545D02*
X136963107Y-89026545D01*
X136963107Y-89026545D02*
X136886916Y-88988450D01*
X136886916Y-88988450D02*
X136848821Y-88950354D01*
X136848821Y-88950354D02*
X136810726Y-88874164D01*
X136810726Y-88874164D02*
X136772630Y-88721783D01*
X136772630Y-88721783D02*
X136772630Y-88531307D01*
X136772630Y-88531307D02*
X136810726Y-88378926D01*
X136810726Y-88378926D02*
X136848821Y-88302735D01*
X136848821Y-88302735D02*
X136886916Y-88264640D01*
X136886916Y-88264640D02*
X136963107Y-88226545D01*
X136467868Y-86486545D02*
X136010725Y-86486545D01*
X136239297Y-86486545D02*
X136239297Y-85686545D01*
X136239297Y-85686545D02*
X136163106Y-85800830D01*
X136163106Y-85800830D02*
X136086916Y-85877021D01*
X136086916Y-85877021D02*
X136010725Y-85915116D01*
X136925011Y-86029402D02*
X136848821Y-85991307D01*
X136848821Y-85991307D02*
X136810726Y-85953211D01*
X136810726Y-85953211D02*
X136772630Y-85877021D01*
X136772630Y-85877021D02*
X136772630Y-85838926D01*
X136772630Y-85838926D02*
X136810726Y-85762735D01*
X136810726Y-85762735D02*
X136848821Y-85724640D01*
X136848821Y-85724640D02*
X136925011Y-85686545D01*
X136925011Y-85686545D02*
X137077392Y-85686545D01*
X137077392Y-85686545D02*
X137153583Y-85724640D01*
X137153583Y-85724640D02*
X137191678Y-85762735D01*
X137191678Y-85762735D02*
X137229773Y-85838926D01*
X137229773Y-85838926D02*
X137229773Y-85877021D01*
X137229773Y-85877021D02*
X137191678Y-85953211D01*
X137191678Y-85953211D02*
X137153583Y-85991307D01*
X137153583Y-85991307D02*
X137077392Y-86029402D01*
X137077392Y-86029402D02*
X136925011Y-86029402D01*
X136925011Y-86029402D02*
X136848821Y-86067497D01*
X136848821Y-86067497D02*
X136810726Y-86105592D01*
X136810726Y-86105592D02*
X136772630Y-86181783D01*
X136772630Y-86181783D02*
X136772630Y-86334164D01*
X136772630Y-86334164D02*
X136810726Y-86410354D01*
X136810726Y-86410354D02*
X136848821Y-86448450D01*
X136848821Y-86448450D02*
X136925011Y-86486545D01*
X136925011Y-86486545D02*
X137077392Y-86486545D01*
X137077392Y-86486545D02*
X137153583Y-86448450D01*
X137153583Y-86448450D02*
X137191678Y-86410354D01*
X137191678Y-86410354D02*
X137229773Y-86334164D01*
X137229773Y-86334164D02*
X137229773Y-86181783D01*
X137229773Y-86181783D02*
X137191678Y-86105592D01*
X137191678Y-86105592D02*
X137153583Y-86067497D01*
X137153583Y-86067497D02*
X137077392Y-86029402D01*
X136010725Y-83222735D02*
X136048821Y-83184640D01*
X136048821Y-83184640D02*
X136125011Y-83146545D01*
X136125011Y-83146545D02*
X136315487Y-83146545D01*
X136315487Y-83146545D02*
X136391678Y-83184640D01*
X136391678Y-83184640D02*
X136429773Y-83222735D01*
X136429773Y-83222735D02*
X136467868Y-83298926D01*
X136467868Y-83298926D02*
X136467868Y-83375116D01*
X136467868Y-83375116D02*
X136429773Y-83489402D01*
X136429773Y-83489402D02*
X135972630Y-83946545D01*
X135972630Y-83946545D02*
X136467868Y-83946545D01*
X137153583Y-83146545D02*
X137001202Y-83146545D01*
X137001202Y-83146545D02*
X136925011Y-83184640D01*
X136925011Y-83184640D02*
X136886916Y-83222735D01*
X136886916Y-83222735D02*
X136810726Y-83337021D01*
X136810726Y-83337021D02*
X136772630Y-83489402D01*
X136772630Y-83489402D02*
X136772630Y-83794164D01*
X136772630Y-83794164D02*
X136810726Y-83870354D01*
X136810726Y-83870354D02*
X136848821Y-83908450D01*
X136848821Y-83908450D02*
X136925011Y-83946545D01*
X136925011Y-83946545D02*
X137077392Y-83946545D01*
X137077392Y-83946545D02*
X137153583Y-83908450D01*
X137153583Y-83908450D02*
X137191678Y-83870354D01*
X137191678Y-83870354D02*
X137229773Y-83794164D01*
X137229773Y-83794164D02*
X137229773Y-83603688D01*
X137229773Y-83603688D02*
X137191678Y-83527497D01*
X137191678Y-83527497D02*
X137153583Y-83489402D01*
X137153583Y-83489402D02*
X137077392Y-83451307D01*
X137077392Y-83451307D02*
X136925011Y-83451307D01*
X136925011Y-83451307D02*
X136848821Y-83489402D01*
X136848821Y-83489402D02*
X136810726Y-83527497D01*
X136810726Y-83527497D02*
X136772630Y-83603688D01*
X136010725Y-80682735D02*
X136048821Y-80644640D01*
X136048821Y-80644640D02*
X136125011Y-80606545D01*
X136125011Y-80606545D02*
X136315487Y-80606545D01*
X136315487Y-80606545D02*
X136391678Y-80644640D01*
X136391678Y-80644640D02*
X136429773Y-80682735D01*
X136429773Y-80682735D02*
X136467868Y-80758926D01*
X136467868Y-80758926D02*
X136467868Y-80835116D01*
X136467868Y-80835116D02*
X136429773Y-80949402D01*
X136429773Y-80949402D02*
X135972630Y-81406545D01*
X135972630Y-81406545D02*
X136467868Y-81406545D01*
X136734535Y-80606545D02*
X137267869Y-80606545D01*
X137267869Y-80606545D02*
X136925011Y-81406545D01*
X136010725Y-78142735D02*
X136048821Y-78104640D01*
X136048821Y-78104640D02*
X136125011Y-78066545D01*
X136125011Y-78066545D02*
X136315487Y-78066545D01*
X136315487Y-78066545D02*
X136391678Y-78104640D01*
X136391678Y-78104640D02*
X136429773Y-78142735D01*
X136429773Y-78142735D02*
X136467868Y-78218926D01*
X136467868Y-78218926D02*
X136467868Y-78295116D01*
X136467868Y-78295116D02*
X136429773Y-78409402D01*
X136429773Y-78409402D02*
X135972630Y-78866545D01*
X135972630Y-78866545D02*
X136467868Y-78866545D01*
X136925011Y-78409402D02*
X136848821Y-78371307D01*
X136848821Y-78371307D02*
X136810726Y-78333211D01*
X136810726Y-78333211D02*
X136772630Y-78257021D01*
X136772630Y-78257021D02*
X136772630Y-78218926D01*
X136772630Y-78218926D02*
X136810726Y-78142735D01*
X136810726Y-78142735D02*
X136848821Y-78104640D01*
X136848821Y-78104640D02*
X136925011Y-78066545D01*
X136925011Y-78066545D02*
X137077392Y-78066545D01*
X137077392Y-78066545D02*
X137153583Y-78104640D01*
X137153583Y-78104640D02*
X137191678Y-78142735D01*
X137191678Y-78142735D02*
X137229773Y-78218926D01*
X137229773Y-78218926D02*
X137229773Y-78257021D01*
X137229773Y-78257021D02*
X137191678Y-78333211D01*
X137191678Y-78333211D02*
X137153583Y-78371307D01*
X137153583Y-78371307D02*
X137077392Y-78409402D01*
X137077392Y-78409402D02*
X136925011Y-78409402D01*
X136925011Y-78409402D02*
X136848821Y-78447497D01*
X136848821Y-78447497D02*
X136810726Y-78485592D01*
X136810726Y-78485592D02*
X136772630Y-78561783D01*
X136772630Y-78561783D02*
X136772630Y-78714164D01*
X136772630Y-78714164D02*
X136810726Y-78790354D01*
X136810726Y-78790354D02*
X136848821Y-78828450D01*
X136848821Y-78828450D02*
X136925011Y-78866545D01*
X136925011Y-78866545D02*
X137077392Y-78866545D01*
X137077392Y-78866545D02*
X137153583Y-78828450D01*
X137153583Y-78828450D02*
X137191678Y-78790354D01*
X137191678Y-78790354D02*
X137229773Y-78714164D01*
X137229773Y-78714164D02*
X137229773Y-78561783D01*
X137229773Y-78561783D02*
X137191678Y-78485592D01*
X137191678Y-78485592D02*
X137153583Y-78447497D01*
X137153583Y-78447497D02*
X137077392Y-78409402D01*
X136010725Y-75602735D02*
X136048821Y-75564640D01*
X136048821Y-75564640D02*
X136125011Y-75526545D01*
X136125011Y-75526545D02*
X136315487Y-75526545D01*
X136315487Y-75526545D02*
X136391678Y-75564640D01*
X136391678Y-75564640D02*
X136429773Y-75602735D01*
X136429773Y-75602735D02*
X136467868Y-75678926D01*
X136467868Y-75678926D02*
X136467868Y-75755116D01*
X136467868Y-75755116D02*
X136429773Y-75869402D01*
X136429773Y-75869402D02*
X135972630Y-76326545D01*
X135972630Y-76326545D02*
X136467868Y-76326545D01*
X136848821Y-76326545D02*
X137001202Y-76326545D01*
X137001202Y-76326545D02*
X137077392Y-76288450D01*
X137077392Y-76288450D02*
X137115488Y-76250354D01*
X137115488Y-76250354D02*
X137191678Y-76136069D01*
X137191678Y-76136069D02*
X137229773Y-75983688D01*
X137229773Y-75983688D02*
X137229773Y-75678926D01*
X137229773Y-75678926D02*
X137191678Y-75602735D01*
X137191678Y-75602735D02*
X137153583Y-75564640D01*
X137153583Y-75564640D02*
X137077392Y-75526545D01*
X137077392Y-75526545D02*
X136925011Y-75526545D01*
X136925011Y-75526545D02*
X136848821Y-75564640D01*
X136848821Y-75564640D02*
X136810726Y-75602735D01*
X136810726Y-75602735D02*
X136772630Y-75678926D01*
X136772630Y-75678926D02*
X136772630Y-75869402D01*
X136772630Y-75869402D02*
X136810726Y-75945592D01*
X136810726Y-75945592D02*
X136848821Y-75983688D01*
X136848821Y-75983688D02*
X136925011Y-76021783D01*
X136925011Y-76021783D02*
X137077392Y-76021783D01*
X137077392Y-76021783D02*
X137153583Y-75983688D01*
X137153583Y-75983688D02*
X137191678Y-75945592D01*
X137191678Y-75945592D02*
X137229773Y-75869402D01*
X135629773Y-72986545D02*
X136125011Y-72986545D01*
X136125011Y-72986545D02*
X135858345Y-73291307D01*
X135858345Y-73291307D02*
X135972630Y-73291307D01*
X135972630Y-73291307D02*
X136048821Y-73329402D01*
X136048821Y-73329402D02*
X136086916Y-73367497D01*
X136086916Y-73367497D02*
X136125011Y-73443688D01*
X136125011Y-73443688D02*
X136125011Y-73634164D01*
X136125011Y-73634164D02*
X136086916Y-73710354D01*
X136086916Y-73710354D02*
X136048821Y-73748450D01*
X136048821Y-73748450D02*
X135972630Y-73786545D01*
X135972630Y-73786545D02*
X135744059Y-73786545D01*
X135744059Y-73786545D02*
X135667868Y-73748450D01*
X135667868Y-73748450D02*
X135629773Y-73710354D01*
X136353583Y-72986545D02*
X136620250Y-73786545D01*
X136620250Y-73786545D02*
X136886916Y-72986545D01*
X137077392Y-72986545D02*
X137572630Y-72986545D01*
X137572630Y-72986545D02*
X137305964Y-73291307D01*
X137305964Y-73291307D02*
X137420249Y-73291307D01*
X137420249Y-73291307D02*
X137496440Y-73329402D01*
X137496440Y-73329402D02*
X137534535Y-73367497D01*
X137534535Y-73367497D02*
X137572630Y-73443688D01*
X137572630Y-73443688D02*
X137572630Y-73634164D01*
X137572630Y-73634164D02*
X137534535Y-73710354D01*
X137534535Y-73710354D02*
X137496440Y-73748450D01*
X137496440Y-73748450D02*
X137420249Y-73786545D01*
X137420249Y-73786545D02*
X137191678Y-73786545D01*
X137191678Y-73786545D02*
X137115487Y-73748450D01*
X137115487Y-73748450D02*
X137077392Y-73710354D01*
X136182155Y-71246545D02*
X135915488Y-70865592D01*
X135725012Y-71246545D02*
X135725012Y-70446545D01*
X135725012Y-70446545D02*
X136029774Y-70446545D01*
X136029774Y-70446545D02*
X136105964Y-70484640D01*
X136105964Y-70484640D02*
X136144059Y-70522735D01*
X136144059Y-70522735D02*
X136182155Y-70598926D01*
X136182155Y-70598926D02*
X136182155Y-70713211D01*
X136182155Y-70713211D02*
X136144059Y-70789402D01*
X136144059Y-70789402D02*
X136105964Y-70827497D01*
X136105964Y-70827497D02*
X136029774Y-70865592D01*
X136029774Y-70865592D02*
X135725012Y-70865592D01*
X136486916Y-71208450D02*
X136601202Y-71246545D01*
X136601202Y-71246545D02*
X136791678Y-71246545D01*
X136791678Y-71246545D02*
X136867869Y-71208450D01*
X136867869Y-71208450D02*
X136905964Y-71170354D01*
X136905964Y-71170354D02*
X136944059Y-71094164D01*
X136944059Y-71094164D02*
X136944059Y-71017973D01*
X136944059Y-71017973D02*
X136905964Y-70941783D01*
X136905964Y-70941783D02*
X136867869Y-70903688D01*
X136867869Y-70903688D02*
X136791678Y-70865592D01*
X136791678Y-70865592D02*
X136639297Y-70827497D01*
X136639297Y-70827497D02*
X136563107Y-70789402D01*
X136563107Y-70789402D02*
X136525012Y-70751307D01*
X136525012Y-70751307D02*
X136486916Y-70675116D01*
X136486916Y-70675116D02*
X136486916Y-70598926D01*
X136486916Y-70598926D02*
X136525012Y-70522735D01*
X136525012Y-70522735D02*
X136563107Y-70484640D01*
X136563107Y-70484640D02*
X136639297Y-70446545D01*
X136639297Y-70446545D02*
X136829774Y-70446545D01*
X136829774Y-70446545D02*
X136944059Y-70484640D01*
X137172631Y-70446545D02*
X137629774Y-70446545D01*
X137401202Y-71246545D02*
X137401202Y-70446545D01*
X136010726Y-67944640D02*
X135934536Y-67906545D01*
X135934536Y-67906545D02*
X135820250Y-67906545D01*
X135820250Y-67906545D02*
X135705964Y-67944640D01*
X135705964Y-67944640D02*
X135629774Y-68020830D01*
X135629774Y-68020830D02*
X135591679Y-68097021D01*
X135591679Y-68097021D02*
X135553583Y-68249402D01*
X135553583Y-68249402D02*
X135553583Y-68363688D01*
X135553583Y-68363688D02*
X135591679Y-68516069D01*
X135591679Y-68516069D02*
X135629774Y-68592259D01*
X135629774Y-68592259D02*
X135705964Y-68668450D01*
X135705964Y-68668450D02*
X135820250Y-68706545D01*
X135820250Y-68706545D02*
X135896441Y-68706545D01*
X135896441Y-68706545D02*
X136010726Y-68668450D01*
X136010726Y-68668450D02*
X136048822Y-68630354D01*
X136048822Y-68630354D02*
X136048822Y-68363688D01*
X136048822Y-68363688D02*
X135896441Y-68363688D01*
X136391679Y-68706545D02*
X136391679Y-67906545D01*
X136391679Y-67906545D02*
X136848822Y-68706545D01*
X136848822Y-68706545D02*
X136848822Y-67906545D01*
X137229774Y-68706545D02*
X137229774Y-67906545D01*
X137229774Y-67906545D02*
X137420250Y-67906545D01*
X137420250Y-67906545D02*
X137534536Y-67944640D01*
X137534536Y-67944640D02*
X137610726Y-68020830D01*
X137610726Y-68020830D02*
X137648821Y-68097021D01*
X137648821Y-68097021D02*
X137686917Y-68249402D01*
X137686917Y-68249402D02*
X137686917Y-68363688D01*
X137686917Y-68363688D02*
X137648821Y-68516069D01*
X137648821Y-68516069D02*
X137610726Y-68592259D01*
X137610726Y-68592259D02*
X137534536Y-68668450D01*
X137534536Y-68668450D02*
X137420250Y-68706545D01*
X137420250Y-68706545D02*
X137229774Y-68706545D01*
X136067869Y-66166545D02*
X135801202Y-65785592D01*
X135610726Y-66166545D02*
X135610726Y-65366545D01*
X135610726Y-65366545D02*
X135915488Y-65366545D01*
X135915488Y-65366545D02*
X135991678Y-65404640D01*
X135991678Y-65404640D02*
X136029773Y-65442735D01*
X136029773Y-65442735D02*
X136067869Y-65518926D01*
X136067869Y-65518926D02*
X136067869Y-65633211D01*
X136067869Y-65633211D02*
X136029773Y-65709402D01*
X136029773Y-65709402D02*
X135991678Y-65747497D01*
X135991678Y-65747497D02*
X135915488Y-65785592D01*
X135915488Y-65785592D02*
X135610726Y-65785592D01*
X136372630Y-65937973D02*
X136753583Y-65937973D01*
X136296440Y-66166545D02*
X136563107Y-65366545D01*
X136563107Y-65366545D02*
X136829773Y-66166545D01*
X137020249Y-65366545D02*
X137210725Y-66166545D01*
X137210725Y-66166545D02*
X137363106Y-65595116D01*
X137363106Y-65595116D02*
X137515487Y-66166545D01*
X137515487Y-66166545D02*
X137705964Y-65366545D01*
%TO.C,U1*%
D12*
X150971250Y-61994250D02*
X150971250Y-95014250D01*
X150971250Y-95014250D02*
X133191250Y-95014250D01*
X133191250Y-95014250D02*
X133191250Y-61994250D01*
X133191250Y-61994250D02*
X150971250Y-61994250D01*
X150971250Y-64534250D02*
X148431250Y-64534250D01*
X148431250Y-64534250D02*
X148431250Y-67074250D01*
X148431250Y-67074250D02*
X150971250Y-67074250D01*
%TD*%
D13*
%TO.C,U1*%
X149701250Y-65804250D03*
D14*
X149701250Y-68344250D03*
X149701250Y-70884250D03*
X149701250Y-73424250D03*
X149701250Y-75964250D03*
X149701250Y-78504250D03*
X149701250Y-81044250D03*
X149701250Y-83584250D03*
X149701250Y-86124250D03*
X149701250Y-88664250D03*
X149701250Y-91204250D03*
X149701250Y-93744250D03*
X134461250Y-93744250D03*
X134461250Y-91204250D03*
X134461250Y-88664250D03*
X134461250Y-86124250D03*
X134461250Y-83584250D03*
X134461250Y-81044250D03*
X134461250Y-78504250D03*
X134461250Y-75964250D03*
X134461250Y-73424250D03*
X134461250Y-70884250D03*
X134461250Y-68344250D03*
X134461250Y-65804250D03*
%TD*%
%LPC*%
D15*
X127890726Y-114524595D02*
X130747869Y-114524595D01*
X129319297Y-119524595D02*
X129319297Y-114524595D01*
X132414536Y-119524595D02*
X132414536Y-114524595D01*
X134557393Y-119524595D02*
X134557393Y-116905547D01*
X134557393Y-116905547D02*
X134319298Y-116429357D01*
X134319298Y-116429357D02*
X133843107Y-116191261D01*
X133843107Y-116191261D02*
X133128821Y-116191261D01*
X133128821Y-116191261D02*
X132652631Y-116429357D01*
X132652631Y-116429357D02*
X132414536Y-116667452D01*
X138843108Y-119286500D02*
X138366917Y-119524595D01*
X138366917Y-119524595D02*
X137414536Y-119524595D01*
X137414536Y-119524595D02*
X136938346Y-119286500D01*
X136938346Y-119286500D02*
X136700250Y-118810309D01*
X136700250Y-118810309D02*
X136700250Y-116905547D01*
X136700250Y-116905547D02*
X136938346Y-116429357D01*
X136938346Y-116429357D02*
X137414536Y-116191261D01*
X137414536Y-116191261D02*
X138366917Y-116191261D01*
X138366917Y-116191261D02*
X138843108Y-116429357D01*
X138843108Y-116429357D02*
X139081203Y-116905547D01*
X139081203Y-116905547D02*
X139081203Y-117381738D01*
X139081203Y-117381738D02*
X136700250Y-117857928D01*
X145033584Y-114524595D02*
X145033584Y-118572214D01*
X145033584Y-118572214D02*
X145271679Y-119048404D01*
X145271679Y-119048404D02*
X145509774Y-119286500D01*
X145509774Y-119286500D02*
X145985965Y-119524595D01*
X145985965Y-119524595D02*
X146938346Y-119524595D01*
X146938346Y-119524595D02*
X147414536Y-119286500D01*
X147414536Y-119286500D02*
X147652631Y-119048404D01*
X147652631Y-119048404D02*
X147890727Y-118572214D01*
X147890727Y-118572214D02*
X147890727Y-114524595D01*
X150271679Y-116191261D02*
X150271679Y-119524595D01*
X150271679Y-116667452D02*
X150509774Y-116429357D01*
X150509774Y-116429357D02*
X150985964Y-116191261D01*
X150985964Y-116191261D02*
X151700250Y-116191261D01*
X151700250Y-116191261D02*
X152176441Y-116429357D01*
X152176441Y-116429357D02*
X152414536Y-116905547D01*
X152414536Y-116905547D02*
X152414536Y-119524595D01*
X154795489Y-119524595D02*
X154795489Y-116191261D01*
X154795489Y-114524595D02*
X154557393Y-114762690D01*
X154557393Y-114762690D02*
X154795489Y-115000785D01*
X154795489Y-115000785D02*
X155033584Y-114762690D01*
X155033584Y-114762690D02*
X154795489Y-114524595D01*
X154795489Y-114524595D02*
X154795489Y-115000785D01*
D16*
%TO.C,REF\u002A\u002A*%
G36*
X142539948Y-121102443D02*
G01*
X142654117Y-121118997D01*
X142694497Y-121126970D01*
X142808792Y-121155558D01*
X142920372Y-121192496D01*
X143029330Y-121237829D01*
X143135760Y-121291602D01*
X143239753Y-121353861D01*
X143341405Y-121424649D01*
X143390300Y-121462393D01*
X143420705Y-121487825D01*
X143455100Y-121518615D01*
X143491978Y-121553257D01*
X143529832Y-121590245D01*
X143567156Y-121628073D01*
X143602442Y-121665235D01*
X143634184Y-121700223D01*
X143660875Y-121731531D01*
X143666423Y-121738408D01*
X143742041Y-121839956D01*
X143809194Y-121944006D01*
X143867861Y-122050507D01*
X143918022Y-122159409D01*
X143959657Y-122270664D01*
X143992743Y-122384221D01*
X144017262Y-122500031D01*
X144033192Y-122618044D01*
X144034138Y-122628045D01*
X144036326Y-122661436D01*
X144037509Y-122700965D01*
X144037741Y-122744560D01*
X144037075Y-122790146D01*
X144035565Y-122835649D01*
X144033266Y-122878996D01*
X144030231Y-122918112D01*
X144026514Y-122950924D01*
X144025572Y-122957339D01*
X144006913Y-123057348D01*
X143982864Y-123151006D01*
X143973822Y-123180321D01*
X143954904Y-123239117D01*
X143984333Y-123239005D01*
X143990924Y-123238938D01*
X144006068Y-123238754D01*
X144029444Y-123238459D01*
X144060733Y-123238057D01*
X144099612Y-123237552D01*
X144145761Y-123236948D01*
X144198859Y-123236250D01*
X144258586Y-123235461D01*
X144324620Y-123234587D01*
X144396641Y-123233631D01*
X144474329Y-123232598D01*
X144557361Y-123231492D01*
X144645418Y-123230316D01*
X144738179Y-123229077D01*
X144835322Y-123227777D01*
X144936528Y-123226421D01*
X145041475Y-123225014D01*
X145149842Y-123223559D01*
X145261308Y-123222061D01*
X145375554Y-123220524D01*
X145492257Y-123218952D01*
X145611098Y-123217350D01*
X145611247Y-123217348D01*
X145755485Y-123215414D01*
X145894136Y-123213580D01*
X146027031Y-123211846D01*
X146153996Y-123210215D01*
X146274861Y-123208688D01*
X146389454Y-123207268D01*
X146497604Y-123205955D01*
X146599138Y-123204753D01*
X146693887Y-123203663D01*
X146781677Y-123202687D01*
X146862338Y-123201826D01*
X146935698Y-123201082D01*
X147001586Y-123200459D01*
X147059830Y-123199956D01*
X147110258Y-123199576D01*
X147152700Y-123199322D01*
X147186983Y-123199194D01*
X147212937Y-123199195D01*
X147230389Y-123199326D01*
X147239168Y-123199590D01*
X147239793Y-123199649D01*
X147307214Y-123212211D01*
X147370741Y-123232605D01*
X147430015Y-123260617D01*
X147484671Y-123296035D01*
X147534350Y-123338645D01*
X147578688Y-123388233D01*
X147593435Y-123407981D01*
X147627655Y-123463579D01*
X147654061Y-123522677D01*
X147672564Y-123584405D01*
X147683074Y-123647891D01*
X147685500Y-123712266D01*
X147679754Y-123776657D01*
X147665746Y-123840196D01*
X147644155Y-123900246D01*
X147632060Y-123925999D01*
X147618311Y-123950700D01*
X147602053Y-123975481D01*
X147582432Y-124001473D01*
X147558595Y-124029809D01*
X147529686Y-124061619D01*
X147495038Y-124097845D01*
X147447398Y-124147334D01*
X147404662Y-124193027D01*
X147365023Y-124236934D01*
X147326673Y-124281065D01*
X147287805Y-124327429D01*
X147279613Y-124337388D01*
X147213599Y-124420568D01*
X147151502Y-124504235D01*
X147093548Y-124587913D01*
X147039958Y-124671127D01*
X146990955Y-124753403D01*
X146946762Y-124834267D01*
X146907604Y-124913243D01*
X146873701Y-124989856D01*
X146845278Y-125063632D01*
X146822558Y-125134096D01*
X146805763Y-125200773D01*
X146795117Y-125263188D01*
X146790842Y-125320868D01*
X146793132Y-125373073D01*
X146801126Y-125421979D01*
X146813765Y-125465036D01*
X146831969Y-125504449D01*
X146856656Y-125542425D01*
X146871586Y-125561404D01*
X146896724Y-125591744D01*
X146924042Y-125588600D01*
X146973921Y-125579535D01*
X147028658Y-125563338D01*
X147088027Y-125540153D01*
X147151800Y-125510123D01*
X147219751Y-125473392D01*
X147291654Y-125430103D01*
X147367283Y-125380398D01*
X147446411Y-125324421D01*
X147528812Y-125262316D01*
X147614259Y-125194225D01*
X147702526Y-125120292D01*
X147793387Y-125040660D01*
X147801131Y-125033715D01*
X147821611Y-125014918D01*
X147847417Y-124990593D01*
X147877701Y-124961583D01*
X147911612Y-124928733D01*
X147948301Y-124892888D01*
X147986919Y-124854891D01*
X148026615Y-124815588D01*
X148066541Y-124775821D01*
X148105847Y-124736437D01*
X148143682Y-124698279D01*
X148179199Y-124662191D01*
X148211546Y-124629018D01*
X148239875Y-124599604D01*
X148263336Y-124574795D01*
X148268789Y-124568925D01*
X148357315Y-124471788D01*
X148448019Y-124369562D01*
X148539920Y-124263446D01*
X148632036Y-124154640D01*
X148723386Y-124044342D01*
X148812988Y-123933751D01*
X148899861Y-123824067D01*
X148983024Y-123716489D01*
X149061494Y-123612215D01*
X149134291Y-123512445D01*
X149139330Y-123505408D01*
X149183541Y-123448165D01*
X149228543Y-123399320D01*
X149275035Y-123358396D01*
X149323715Y-123324917D01*
X149375281Y-123298406D01*
X149430432Y-123278387D01*
X149489866Y-123264383D01*
X149493512Y-123263736D01*
X149557025Y-123257047D01*
X149620268Y-123258824D01*
X149682468Y-123268674D01*
X149742850Y-123286204D01*
X149800640Y-123311019D01*
X149855063Y-123342726D01*
X149905346Y-123380930D01*
X149950712Y-123425240D01*
X149990389Y-123475259D01*
X150023602Y-123530595D01*
X150025439Y-123534208D01*
X150050024Y-123592757D01*
X150066718Y-123654277D01*
X150075523Y-123717687D01*
X150076442Y-123781904D01*
X150069480Y-123845847D01*
X150054639Y-123908432D01*
X150031922Y-123968577D01*
X150024119Y-123984895D01*
X150012695Y-124005367D01*
X149995923Y-124032092D01*
X149974201Y-124064558D01*
X149947924Y-124102252D01*
X149917489Y-124144663D01*
X149883294Y-124191278D01*
X149845735Y-124241587D01*
X149805209Y-124295076D01*
X149762113Y-124351233D01*
X149716844Y-124409547D01*
X149669798Y-124469505D01*
X149621372Y-124530596D01*
X149571963Y-124592307D01*
X149521969Y-124654127D01*
X149471785Y-124715543D01*
X149421808Y-124776043D01*
X149372436Y-124835115D01*
X149324065Y-124892248D01*
X149291319Y-124930459D01*
X149190278Y-125046073D01*
X149087575Y-125160377D01*
X148984030Y-125272528D01*
X148880462Y-125381677D01*
X148777690Y-125486981D01*
X148676535Y-125587593D01*
X148577815Y-125682666D01*
X148482352Y-125771356D01*
X148435688Y-125813408D01*
X148308963Y-125923315D01*
X148184875Y-126024788D01*
X148063368Y-126117849D01*
X147944388Y-126202521D01*
X147827881Y-126278827D01*
X147713792Y-126346789D01*
X147602067Y-126406431D01*
X147492652Y-126457774D01*
X147385492Y-126500842D01*
X147280532Y-126535657D01*
X147177720Y-126562243D01*
X147077000Y-126580622D01*
X146978317Y-126590817D01*
X146881618Y-126592850D01*
X146786848Y-126586744D01*
X146693953Y-126572523D01*
X146647393Y-126562179D01*
X146560552Y-126536277D01*
X146476476Y-126501984D01*
X146395310Y-126459392D01*
X146317198Y-126408589D01*
X146242285Y-126349664D01*
X146170714Y-126282708D01*
X146134401Y-126244232D01*
X146063453Y-126160136D01*
X146000998Y-126073840D01*
X145946831Y-125984899D01*
X145900744Y-125892871D01*
X145862532Y-125797310D01*
X145831989Y-125697773D01*
X145808907Y-125593816D01*
X145797024Y-125517751D01*
X145794144Y-125489187D01*
X145791914Y-125453762D01*
X145790345Y-125413468D01*
X145789452Y-125370296D01*
X145789247Y-125326239D01*
X145789744Y-125283288D01*
X145790956Y-125243435D01*
X145792896Y-125208670D01*
X145794834Y-125187161D01*
X145813622Y-125057305D01*
X145840957Y-124927147D01*
X145876602Y-124797676D01*
X145912799Y-124690166D01*
X145924407Y-124659326D01*
X145937365Y-124626486D01*
X145951244Y-124592596D01*
X145965613Y-124558602D01*
X145980040Y-124525455D01*
X145994096Y-124494103D01*
X146007349Y-124465494D01*
X146019369Y-124440578D01*
X146029725Y-124420303D01*
X146037988Y-124405619D01*
X146043725Y-124397472D01*
X146046194Y-124396289D01*
X146047729Y-124396366D01*
X146046676Y-124394142D01*
X146047115Y-124387950D01*
X146047697Y-124386200D01*
X146048336Y-124386200D01*
X146050555Y-124388419D01*
X146052774Y-124386200D01*
X146050555Y-124383981D01*
X146048336Y-124386200D01*
X146047697Y-124386200D01*
X146050651Y-124377325D01*
X146052774Y-124377325D01*
X146054992Y-124379544D01*
X146057211Y-124377325D01*
X146054992Y-124375106D01*
X146052774Y-124377325D01*
X146050651Y-124377325D01*
X146050844Y-124376746D01*
X146054387Y-124368450D01*
X146057211Y-124368450D01*
X146059430Y-124370669D01*
X146061649Y-124368450D01*
X146059430Y-124366231D01*
X146057211Y-124368450D01*
X146054387Y-124368450D01*
X146056645Y-124363163D01*
X146058436Y-124359575D01*
X146061649Y-124359575D01*
X146063867Y-124361794D01*
X146066086Y-124359575D01*
X146063867Y-124357356D01*
X146061649Y-124359575D01*
X146058436Y-124359575D01*
X146062867Y-124350700D01*
X146066086Y-124350700D01*
X146068305Y-124352919D01*
X146070523Y-124350700D01*
X146068305Y-124348481D01*
X146066086Y-124350700D01*
X146062867Y-124350700D01*
X146063299Y-124349835D01*
X146068125Y-124341825D01*
X146070523Y-124341825D01*
X146072742Y-124344044D01*
X146074961Y-124341825D01*
X146072742Y-124339607D01*
X146070523Y-124341825D01*
X146068125Y-124341825D01*
X146069590Y-124339393D01*
X146074279Y-124334479D01*
X146077827Y-124330099D01*
X146084236Y-124319462D01*
X146092504Y-124304304D01*
X146099267Y-124291127D01*
X146109289Y-124271539D01*
X146119144Y-124253012D01*
X146127393Y-124238218D01*
X146130919Y-124232331D01*
X146141634Y-124215358D01*
X146091657Y-124215479D01*
X146083516Y-124215548D01*
X146066828Y-124215733D01*
X146041920Y-124216032D01*
X146009117Y-124216438D01*
X145968747Y-124216948D01*
X145921136Y-124217557D01*
X145866611Y-124218262D01*
X145805499Y-124219057D01*
X145738127Y-124219939D01*
X145664821Y-124220903D01*
X145585907Y-124221945D01*
X145501713Y-124223061D01*
X145412566Y-124224245D01*
X145318791Y-124225495D01*
X145220716Y-124226805D01*
X145118667Y-124228171D01*
X145012972Y-124229590D01*
X144903956Y-124231056D01*
X144791946Y-124232565D01*
X144677270Y-124234113D01*
X144560253Y-124235696D01*
X144448113Y-124237216D01*
X142854546Y-124258832D01*
X138859137Y-127111248D01*
X138689224Y-127232550D01*
X138521014Y-127352629D01*
X138354652Y-127471383D01*
X138190286Y-127588705D01*
X138028062Y-127704492D01*
X137868128Y-127818638D01*
X137710629Y-127931040D01*
X137555713Y-128041592D01*
X137403526Y-128150190D01*
X137254215Y-128256730D01*
X137107927Y-128361106D01*
X136964809Y-128463214D01*
X136825007Y-128562949D01*
X136688668Y-128660208D01*
X136555939Y-128754884D01*
X136426966Y-128846873D01*
X136301897Y-128936072D01*
X136180878Y-129022375D01*
X136064056Y-129105677D01*
X135951577Y-129185874D01*
X135843589Y-129262861D01*
X135740238Y-129336534D01*
X135641670Y-129406788D01*
X135548033Y-129473519D01*
X135459474Y-129536621D01*
X135376139Y-129595990D01*
X135298174Y-129651522D01*
X135225727Y-129703111D01*
X135158945Y-129750654D01*
X135097973Y-129794045D01*
X135042960Y-129833181D01*
X134994051Y-129867955D01*
X134951393Y-129898264D01*
X134915133Y-129924003D01*
X134885419Y-129945068D01*
X134862396Y-129961353D01*
X134846211Y-129972755D01*
X134837011Y-129979167D01*
X134834884Y-129980590D01*
X134802359Y-129997428D01*
X134764158Y-130013501D01*
X134723466Y-130027535D01*
X134701897Y-130033733D01*
X134677592Y-130038522D01*
X134647098Y-130042025D01*
X134613018Y-130044164D01*
X134577954Y-130044865D01*
X134544508Y-130044050D01*
X134515285Y-130041645D01*
X134501728Y-130039573D01*
X134435089Y-130022687D01*
X134372817Y-129998303D01*
X134315335Y-129966783D01*
X134263067Y-129928487D01*
X134216436Y-129883777D01*
X134175866Y-129833013D01*
X134141781Y-129776557D01*
X134114604Y-129714770D01*
X134111914Y-129707265D01*
X134095023Y-129645847D01*
X134086395Y-129582665D01*
X134085879Y-129518772D01*
X134093322Y-129455221D01*
X134108573Y-129393066D01*
X134131478Y-129333360D01*
X134161886Y-129277155D01*
X134177400Y-129254089D01*
X134186613Y-129241524D01*
X134195839Y-129229721D01*
X134205885Y-129217856D01*
X134217559Y-129205104D01*
X134231668Y-129190638D01*
X134249020Y-129173635D01*
X134270424Y-129153269D01*
X134296686Y-129128715D01*
X134328614Y-129099148D01*
X134333452Y-129094682D01*
X134392227Y-129039629D01*
X134455201Y-128979162D01*
X134521282Y-128914404D01*
X134589378Y-128846480D01*
X134658396Y-128776515D01*
X134727244Y-128705634D01*
X134794830Y-128634960D01*
X134860061Y-128565617D01*
X134921846Y-128498732D01*
X134979091Y-128435427D01*
X135029955Y-128377692D01*
X135161199Y-128222172D01*
X135284739Y-128067168D01*
X135400504Y-127912811D01*
X135508424Y-127759231D01*
X135608428Y-127606558D01*
X135700446Y-127454924D01*
X135784408Y-127304458D01*
X135860242Y-127155293D01*
X135927879Y-127007557D01*
X135987247Y-126861383D01*
X136038277Y-126716900D01*
X136080898Y-126574239D01*
X136115039Y-126433531D01*
X136134962Y-126329806D01*
X136142326Y-126285587D01*
X136148333Y-126246965D01*
X136153116Y-126212226D01*
X136156814Y-126179654D01*
X136159560Y-126147536D01*
X136161492Y-126114158D01*
X136162745Y-126077806D01*
X136163454Y-126036765D01*
X136163756Y-125989321D01*
X136163795Y-125965934D01*
X136163733Y-125917756D01*
X136163411Y-125876956D01*
X136162729Y-125842038D01*
X136161587Y-125811506D01*
X136159887Y-125783865D01*
X136157529Y-125757618D01*
X136154412Y-125731270D01*
X136150438Y-125703325D01*
X136145507Y-125672287D01*
X136143425Y-125659750D01*
X136130072Y-125589571D01*
X136113999Y-125523653D01*
X136094850Y-125459762D01*
X136071916Y-125394344D01*
X136047716Y-125335874D01*
X136021292Y-125282433D01*
X135991686Y-125232099D01*
X135957941Y-125182952D01*
X135954234Y-125177938D01*
X135915517Y-125119207D01*
X135885499Y-125058837D01*
X135864198Y-124996910D01*
X135851631Y-124933510D01*
X135847814Y-124868720D01*
X135852766Y-124802623D01*
X135864769Y-124741943D01*
X135884507Y-124681740D01*
X135911699Y-124625309D01*
X135945637Y-124573143D01*
X135985617Y-124525739D01*
X136030931Y-124483591D01*
X136080874Y-124447195D01*
X136134740Y-124417044D01*
X136191822Y-124393634D01*
X136251416Y-124377460D01*
X136312814Y-124369017D01*
X136375311Y-124368800D01*
X136394688Y-124370468D01*
X136458475Y-124380576D01*
X136517474Y-124396883D01*
X136572389Y-124419815D01*
X136623929Y-124449800D01*
X136672797Y-124487263D01*
X136719701Y-124532631D01*
X136765345Y-124586330D01*
X136776874Y-124601416D01*
X136845282Y-124699883D01*
X136907906Y-124804728D01*
X136964534Y-124915426D01*
X137014959Y-125031451D01*
X137058971Y-125152278D01*
X137096362Y-125277381D01*
X137126921Y-125406235D01*
X137150442Y-125538314D01*
X137151012Y-125542157D01*
X137156824Y-125582504D01*
X137161649Y-125618669D01*
X137165576Y-125652091D01*
X137168694Y-125684207D01*
X137171094Y-125716453D01*
X137172863Y-125750266D01*
X137174092Y-125787085D01*
X137174870Y-125828344D01*
X137175287Y-125875483D01*
X137175431Y-125929938D01*
X137175433Y-125934872D01*
X137175339Y-125991262D01*
X137174947Y-126040330D01*
X137174157Y-126083628D01*
X137172873Y-126122707D01*
X137170995Y-126159120D01*
X137168427Y-126194416D01*
X137165071Y-126230148D01*
X137160827Y-126267866D01*
X137155599Y-126309122D01*
X137149288Y-126355468D01*
X137148534Y-126360868D01*
X137125534Y-126502354D01*
X137095790Y-126647257D01*
X137059775Y-126793827D01*
X137017959Y-126940314D01*
X136970815Y-127084967D01*
X136918815Y-127226037D01*
X136907592Y-127254371D01*
X136898064Y-127278132D01*
X136919261Y-127262656D01*
X136924061Y-127259210D01*
X136935885Y-127250749D01*
X136954537Y-127237416D01*
X136979816Y-127219351D01*
X137011525Y-127196698D01*
X137049464Y-127169597D01*
X137093436Y-127138190D01*
X137143242Y-127102619D01*
X137198683Y-127063026D01*
X137259561Y-127019552D01*
X137325678Y-126972339D01*
X137396835Y-126921529D01*
X137472833Y-126867264D01*
X137553474Y-126809685D01*
X137638559Y-126748934D01*
X137727890Y-126685153D01*
X137821269Y-126618484D01*
X137918496Y-126549067D01*
X138019374Y-126477046D01*
X138123704Y-126402562D01*
X138231287Y-126325755D01*
X138341925Y-126246769D01*
X138455420Y-126165745D01*
X138571572Y-126082825D01*
X138690184Y-125998150D01*
X138811057Y-125911862D01*
X138933992Y-125824103D01*
X139058791Y-125735014D01*
X139139217Y-125677602D01*
X139264945Y-125587848D01*
X139388876Y-125499370D01*
X139510811Y-125412309D01*
X139630557Y-125326805D01*
X139747916Y-125242999D01*
X139862692Y-125161030D01*
X139974689Y-125081039D01*
X140083711Y-125003166D01*
X140189562Y-124927551D01*
X140292046Y-124854334D01*
X140390966Y-124783655D01*
X140486127Y-124715655D01*
X140577332Y-124650475D01*
X140664386Y-124588253D01*
X140747092Y-124529130D01*
X140825253Y-124473247D01*
X140898675Y-124420744D01*
X140967160Y-124371760D01*
X141030514Y-124326437D01*
X141088538Y-124284913D01*
X141141038Y-124247331D01*
X141187817Y-124213828D01*
X141228680Y-124184547D01*
X141263429Y-124159627D01*
X141291870Y-124139208D01*
X141313805Y-124123430D01*
X141329039Y-124112434D01*
X141337375Y-124106359D01*
X141339004Y-124105114D01*
X141335867Y-124101787D01*
X141326552Y-124094715D01*
X141312405Y-124084860D01*
X141294771Y-124073182D01*
X141290192Y-124070229D01*
X141210964Y-124014889D01*
X141134165Y-123952386D01*
X141061173Y-123884070D01*
X140993366Y-123811288D01*
X140932123Y-123735387D01*
X140896833Y-123685535D01*
X140846298Y-123605240D01*
X140802700Y-123525399D01*
X140764652Y-123443393D01*
X140750900Y-123409959D01*
X140713594Y-123304205D01*
X140684429Y-123195523D01*
X140663376Y-123084464D01*
X140650410Y-122971575D01*
X140645503Y-122857404D01*
X140646574Y-122818037D01*
X141652185Y-122818037D01*
X141652268Y-122880805D01*
X141657305Y-122937423D01*
X141667571Y-122989282D01*
X141683340Y-123037774D01*
X141704692Y-123083922D01*
X141735590Y-123132687D01*
X141773400Y-123175990D01*
X141817973Y-123213750D01*
X141869160Y-123245881D01*
X141926814Y-123272301D01*
X141990785Y-123292925D01*
X142060925Y-123307670D01*
X142114094Y-123314495D01*
X142140552Y-123316202D01*
X142173580Y-123316987D01*
X142210927Y-123316908D01*
X142250343Y-123316023D01*
X142289577Y-123314389D01*
X142326379Y-123312064D01*
X142358497Y-123309105D01*
X142367466Y-123308027D01*
X142422935Y-123300223D01*
X142470764Y-123292019D01*
X142512189Y-123283132D01*
X142548444Y-123273282D01*
X142580766Y-123262188D01*
X142595995Y-123256019D01*
X142676759Y-123218397D01*
X142749622Y-123177878D01*
X142814490Y-123134548D01*
X142871273Y-123088495D01*
X142919879Y-123039803D01*
X142960214Y-122988560D01*
X142992188Y-122934851D01*
X143015709Y-122878764D01*
X143022839Y-122855277D01*
X143032910Y-122801767D01*
X143035241Y-122745312D01*
X143030133Y-122686731D01*
X143017883Y-122626841D01*
X142998792Y-122566462D01*
X142973157Y-122506411D01*
X142941278Y-122447508D01*
X142903453Y-122390569D01*
X142859982Y-122336413D01*
X142816795Y-122291228D01*
X142757968Y-122240124D01*
X142695852Y-122196813D01*
X142630880Y-122161479D01*
X142563484Y-122134305D01*
X142494096Y-122115474D01*
X142423147Y-122105171D01*
X142374122Y-122103129D01*
X142322333Y-122105110D01*
X142272959Y-122111371D01*
X142224144Y-122122384D01*
X142174032Y-122138623D01*
X142120768Y-122160561D01*
X142087328Y-122176263D01*
X142013220Y-122217114D01*
X141944971Y-122264401D01*
X141882867Y-122317844D01*
X141827193Y-122377163D01*
X141778233Y-122442078D01*
X141736273Y-122512308D01*
X141726575Y-122531343D01*
X141702633Y-122583015D01*
X141684102Y-122630496D01*
X141670374Y-122676120D01*
X141660844Y-122722220D01*
X141654908Y-122771130D01*
X141652185Y-122818037D01*
X140646574Y-122818037D01*
X140648628Y-122742499D01*
X140659759Y-122627408D01*
X140678869Y-122512681D01*
X140705932Y-122398864D01*
X140740919Y-122286506D01*
X140783806Y-122176155D01*
X140814494Y-122108688D01*
X140836145Y-122064558D01*
X140856061Y-122026065D01*
X140875736Y-121990577D01*
X140896664Y-121955466D01*
X140920342Y-121918102D01*
X140938731Y-121890131D01*
X140983167Y-121826191D01*
X141028988Y-121766352D01*
X141078095Y-121708310D01*
X141132384Y-121649762D01*
X141160287Y-121621358D01*
X141251734Y-121535586D01*
X141347211Y-121457508D01*
X141447264Y-121386755D01*
X141552436Y-121322960D01*
X141663274Y-121265756D01*
X141733823Y-121233972D01*
X141850052Y-121188638D01*
X141965848Y-121152160D01*
X142081256Y-121124534D01*
X142196324Y-121105754D01*
X142311098Y-121095816D01*
X142425624Y-121094714D01*
X142539948Y-121102443D01*
G37*
%TD*%
D17*
%TO.C,MX1*%
X42806250Y-69850000D03*
D18*
X37306250Y-69850000D03*
D19*
X32086250Y-74050000D03*
D20*
X42386250Y-69850000D03*
D17*
X31806250Y-69850000D03*
D20*
X32226250Y-69850000D03*
D21*
X39826021Y-65059984D03*
D22*
X42306250Y-66050000D03*
D23*
X39846250Y-64770000D03*
X34806250Y-65850000D03*
D22*
X37306250Y-63950000D03*
D24*
X34151245Y-66579996D03*
%TD*%
D18*
%TO.C,MX2*%
X56356250Y-69850000D03*
D17*
X61856250Y-69850000D03*
D20*
X61436250Y-69850000D03*
X51276250Y-69850000D03*
D19*
X51136250Y-74050000D03*
D17*
X50856250Y-69850000D03*
D21*
X58876021Y-65059984D03*
D22*
X61356250Y-66050000D03*
D23*
X58896250Y-64770000D03*
D22*
X56356250Y-63950000D03*
D24*
X53201245Y-66579996D03*
D23*
X53856250Y-65850000D03*
%TD*%
D17*
%TO.C,MX3*%
X69906250Y-69850000D03*
X80906250Y-69850000D03*
D20*
X80486250Y-69850000D03*
D18*
X75406250Y-69850000D03*
D20*
X70326250Y-69850000D03*
D19*
X70186250Y-74050000D03*
D21*
X77926021Y-65059984D03*
D23*
X77946250Y-64770000D03*
D22*
X80406250Y-66050000D03*
X75406250Y-63950000D03*
D24*
X72251245Y-66579996D03*
D23*
X72906250Y-65850000D03*
%TD*%
D20*
%TO.C,MX4*%
X99536250Y-69850000D03*
D18*
X94456250Y-69850000D03*
D17*
X88956250Y-69850000D03*
D19*
X89236250Y-74050000D03*
D20*
X89376250Y-69850000D03*
D17*
X99956250Y-69850000D03*
D23*
X96996250Y-64770000D03*
D22*
X99456250Y-66050000D03*
D21*
X96976021Y-65059984D03*
D24*
X91301245Y-66579996D03*
D22*
X94456250Y-63950000D03*
D23*
X91956250Y-65850000D03*
%TD*%
D20*
%TO.C,MX5*%
X118586250Y-69850000D03*
D17*
X108006250Y-69850000D03*
X119006250Y-69850000D03*
D19*
X108286250Y-74050000D03*
D20*
X108426250Y-69850000D03*
D18*
X113506250Y-69850000D03*
D21*
X116026021Y-65059984D03*
D22*
X118506250Y-66050000D03*
D23*
X116046250Y-64770000D03*
X111006250Y-65850000D03*
D22*
X113506250Y-63950000D03*
D24*
X110351245Y-66579996D03*
%TD*%
D19*
%TO.C,MX6*%
X165436250Y-74050000D03*
D20*
X165576250Y-69850000D03*
X175736250Y-69850000D03*
D17*
X165156250Y-69850000D03*
D18*
X170656250Y-69850000D03*
D17*
X176156250Y-69850000D03*
D21*
X173176021Y-65059984D03*
D23*
X173196250Y-64770000D03*
D22*
X175656250Y-66050000D03*
D24*
X167501245Y-66579996D03*
D22*
X170656250Y-63950000D03*
D23*
X168156250Y-65850000D03*
%TD*%
D17*
%TO.C,MX7*%
X195206250Y-69850000D03*
D19*
X184486250Y-74050000D03*
D20*
X184626250Y-69850000D03*
D17*
X184206250Y-69850000D03*
D20*
X194786250Y-69850000D03*
D18*
X189706250Y-69850000D03*
D21*
X192226021Y-65059984D03*
D23*
X192246250Y-64770000D03*
D22*
X194706250Y-66050000D03*
X189706250Y-63950000D03*
D23*
X187206250Y-65850000D03*
D24*
X186551245Y-66579996D03*
%TD*%
D20*
%TO.C,MX8*%
X213836250Y-69850000D03*
X203676250Y-69850000D03*
D18*
X208756250Y-69850000D03*
D19*
X203536250Y-74050000D03*
D17*
X203256250Y-69850000D03*
X214256250Y-69850000D03*
D23*
X211296250Y-64770000D03*
D22*
X213756250Y-66050000D03*
D21*
X211276021Y-65059984D03*
D23*
X206256250Y-65850000D03*
D24*
X205601245Y-66579996D03*
D22*
X208756250Y-63950000D03*
%TD*%
D20*
%TO.C,MX9*%
X232886250Y-69850000D03*
D17*
X233306250Y-69850000D03*
D18*
X227806250Y-69850000D03*
D20*
X222726250Y-69850000D03*
D17*
X222306250Y-69850000D03*
D19*
X222586250Y-74050000D03*
D22*
X232806250Y-66050000D03*
D21*
X230326021Y-65059984D03*
D23*
X230346250Y-64770000D03*
D22*
X227806250Y-63950000D03*
D23*
X225306250Y-65850000D03*
D24*
X224651245Y-66579996D03*
%TD*%
D20*
%TO.C,MX10*%
X241776250Y-69850000D03*
X251936250Y-69850000D03*
D17*
X252356250Y-69850000D03*
D19*
X241636250Y-74050000D03*
D17*
X241356250Y-69850000D03*
D18*
X246856250Y-69850000D03*
D22*
X251856250Y-66050000D03*
D21*
X249376021Y-65059984D03*
D23*
X249396250Y-64770000D03*
X244356250Y-65850000D03*
D24*
X243701245Y-66579996D03*
D22*
X246856250Y-63950000D03*
%TD*%
D20*
%TO.C,MX11*%
X260826250Y-69850000D03*
D17*
X271406250Y-69850000D03*
D20*
X270986250Y-69850000D03*
D17*
X260406250Y-69850000D03*
D19*
X260686250Y-74050000D03*
D18*
X265906250Y-69850000D03*
D23*
X268446250Y-64770000D03*
D22*
X270906250Y-66050000D03*
D21*
X268426021Y-65059984D03*
D22*
X265906250Y-63950000D03*
D24*
X262751245Y-66579996D03*
D23*
X263406250Y-65850000D03*
%TD*%
D17*
%TO.C,MX12*%
X42806250Y-88900000D03*
D20*
X32226250Y-88900000D03*
D18*
X37306250Y-88900000D03*
D19*
X32086250Y-93100000D03*
D17*
X31806250Y-88900000D03*
D20*
X42386250Y-88900000D03*
D23*
X39846250Y-83820000D03*
D22*
X42306250Y-85100000D03*
D21*
X39826021Y-84109984D03*
D22*
X37306250Y-83000000D03*
D23*
X34806250Y-84900000D03*
D24*
X34151245Y-85629996D03*
%TD*%
D18*
%TO.C,MX13*%
X56356250Y-88900000D03*
D20*
X61436250Y-88900000D03*
D17*
X50856250Y-88900000D03*
D20*
X51276250Y-88900000D03*
D17*
X61856250Y-88900000D03*
D19*
X51136250Y-93100000D03*
D22*
X61356250Y-85100000D03*
D23*
X58896250Y-83820000D03*
D21*
X58876021Y-84109984D03*
D23*
X53856250Y-84900000D03*
D22*
X56356250Y-83000000D03*
D24*
X53201245Y-85629996D03*
%TD*%
D18*
%TO.C,MX14*%
X75406250Y-88900000D03*
D20*
X80486250Y-88900000D03*
D17*
X69906250Y-88900000D03*
D19*
X70186250Y-93100000D03*
D17*
X80906250Y-88900000D03*
D20*
X70326250Y-88900000D03*
D23*
X77946250Y-83820000D03*
D22*
X80406250Y-85100000D03*
D21*
X77926021Y-84109984D03*
D22*
X75406250Y-83000000D03*
D23*
X72906250Y-84900000D03*
D24*
X72251245Y-85629996D03*
%TD*%
D19*
%TO.C,MX15*%
X89236250Y-93100000D03*
D20*
X89376250Y-88900000D03*
D18*
X94456250Y-88900000D03*
D20*
X99536250Y-88900000D03*
D17*
X99956250Y-88900000D03*
X88956250Y-88900000D03*
D22*
X99456250Y-85100000D03*
D23*
X96996250Y-83820000D03*
D21*
X96976021Y-84109984D03*
D23*
X91956250Y-84900000D03*
D24*
X91301245Y-85629996D03*
D22*
X94456250Y-83000000D03*
%TD*%
D20*
%TO.C,MX16*%
X118586250Y-88900000D03*
D19*
X108286250Y-93100000D03*
D17*
X108006250Y-88900000D03*
D18*
X113506250Y-88900000D03*
D20*
X108426250Y-88900000D03*
D17*
X119006250Y-88900000D03*
D23*
X116046250Y-83820000D03*
D21*
X116026021Y-84109984D03*
D22*
X118506250Y-85100000D03*
D23*
X111006250Y-84900000D03*
D22*
X113506250Y-83000000D03*
D24*
X110351245Y-85629996D03*
%TD*%
D17*
%TO.C,MX17*%
X176156250Y-88900000D03*
D19*
X165436250Y-93100000D03*
D17*
X165156250Y-88900000D03*
D20*
X165576250Y-88900000D03*
D18*
X170656250Y-88900000D03*
D20*
X175736250Y-88900000D03*
D23*
X173196250Y-83820000D03*
D21*
X173176021Y-84109984D03*
D22*
X175656250Y-85100000D03*
D24*
X167501245Y-85629996D03*
D22*
X170656250Y-83000000D03*
D23*
X168156250Y-84900000D03*
%TD*%
D20*
%TO.C,MX18*%
X194786250Y-88900000D03*
D19*
X184486250Y-93100000D03*
D18*
X189706250Y-88900000D03*
D17*
X195206250Y-88900000D03*
D20*
X184626250Y-88900000D03*
D17*
X184206250Y-88900000D03*
D23*
X192246250Y-83820000D03*
D22*
X194706250Y-85100000D03*
D21*
X192226021Y-84109984D03*
D24*
X186551245Y-85629996D03*
D22*
X189706250Y-83000000D03*
D23*
X187206250Y-84900000D03*
%TD*%
D19*
%TO.C,MX19*%
X203536250Y-93100000D03*
D20*
X203676250Y-88900000D03*
D17*
X214256250Y-88900000D03*
D18*
X208756250Y-88900000D03*
D20*
X213836250Y-88900000D03*
D17*
X203256250Y-88900000D03*
D22*
X213756250Y-85100000D03*
D23*
X211296250Y-83820000D03*
D21*
X211276021Y-84109984D03*
D22*
X208756250Y-83000000D03*
D23*
X206256250Y-84900000D03*
D24*
X205601245Y-85629996D03*
%TD*%
D17*
%TO.C,MX20*%
X233306250Y-88900000D03*
X222306250Y-88900000D03*
D20*
X232886250Y-88900000D03*
X222726250Y-88900000D03*
D18*
X227806250Y-88900000D03*
D19*
X222586250Y-93100000D03*
D23*
X230346250Y-83820000D03*
D21*
X230326021Y-84109984D03*
D22*
X232806250Y-85100000D03*
X227806250Y-83000000D03*
D23*
X225306250Y-84900000D03*
D24*
X224651245Y-85629996D03*
%TD*%
D17*
%TO.C,MX21*%
X241356250Y-88900000D03*
D19*
X241636250Y-93100000D03*
D20*
X241776250Y-88900000D03*
D17*
X252356250Y-88900000D03*
D18*
X246856250Y-88900000D03*
D20*
X251936250Y-88900000D03*
D23*
X249396250Y-83820000D03*
D22*
X251856250Y-85100000D03*
D21*
X249376021Y-84109984D03*
D22*
X246856250Y-83000000D03*
D24*
X243701245Y-85629996D03*
D23*
X244356250Y-84900000D03*
%TD*%
D19*
%TO.C,MX22*%
X260686250Y-93100000D03*
D20*
X260826250Y-88900000D03*
D17*
X260406250Y-88900000D03*
D18*
X265906250Y-88900000D03*
D17*
X271406250Y-88900000D03*
D20*
X270986250Y-88900000D03*
D21*
X268426021Y-84109984D03*
D23*
X268446250Y-83820000D03*
D22*
X270906250Y-85100000D03*
D23*
X263406250Y-84900000D03*
D24*
X262751245Y-85629996D03*
D22*
X265906250Y-83000000D03*
%TD*%
D17*
%TO.C,MX23*%
X80906250Y-127000000D03*
X69906250Y-127000000D03*
D19*
X70186250Y-131200000D03*
D18*
X75406250Y-127000000D03*
D20*
X70326250Y-127000000D03*
X80486250Y-127000000D03*
D23*
X77946250Y-121920000D03*
D22*
X80406250Y-123200000D03*
D21*
X77926021Y-122209984D03*
D22*
X75406250Y-121100000D03*
D23*
X72906250Y-123000000D03*
D24*
X72251245Y-123729996D03*
%TD*%
D17*
%TO.C,MX24*%
X88956250Y-127000000D03*
X99956250Y-127000000D03*
D20*
X99536250Y-127000000D03*
X89376250Y-127000000D03*
D18*
X94456250Y-127000000D03*
D19*
X89236250Y-131200000D03*
D22*
X99456250Y-123200000D03*
D23*
X96996250Y-121920000D03*
D21*
X96976021Y-122209984D03*
D23*
X91956250Y-123000000D03*
D22*
X94456250Y-121100000D03*
D24*
X91301245Y-123729996D03*
%TD*%
D19*
%TO.C,MX26*%
X165436250Y-131200000D03*
D20*
X165576250Y-127000000D03*
X175736250Y-127000000D03*
D18*
X170656250Y-127000000D03*
D17*
X176156250Y-127000000D03*
X165156250Y-127000000D03*
D23*
X173196250Y-121920000D03*
D21*
X173176021Y-122209984D03*
D22*
X175656250Y-123200000D03*
D23*
X168156250Y-123000000D03*
D24*
X167501245Y-123729996D03*
D22*
X170656250Y-121100000D03*
%TD*%
D17*
%TO.C,MX27*%
X195206250Y-127000000D03*
D20*
X184626250Y-127000000D03*
D17*
X184206250Y-127000000D03*
D19*
X184486250Y-131200000D03*
D20*
X194786250Y-127000000D03*
D18*
X189706250Y-127000000D03*
D21*
X192226021Y-122209984D03*
D22*
X194706250Y-123200000D03*
D23*
X192246250Y-121920000D03*
X187206250Y-123000000D03*
D24*
X186551245Y-123729996D03*
D22*
X189706250Y-121100000D03*
%TD*%
D20*
%TO.C,MX25*%
X118586250Y-127000000D03*
D17*
X119006250Y-127000000D03*
X108006250Y-127000000D03*
D20*
X108426250Y-127000000D03*
D18*
X113506250Y-127000000D03*
D19*
X108286250Y-131200000D03*
D21*
X116026021Y-122209984D03*
D23*
X116046250Y-121920000D03*
D22*
X118506250Y-123200000D03*
X113506250Y-121100000D03*
D24*
X110351245Y-123729996D03*
D23*
X111006250Y-123000000D03*
%TD*%
D19*
%TO.C,MX28*%
X203536250Y-131200000D03*
D17*
X214256250Y-127000000D03*
X203256250Y-127000000D03*
D18*
X208756250Y-127000000D03*
D20*
X213836250Y-127000000D03*
X203676250Y-127000000D03*
D23*
X211296250Y-121920000D03*
D22*
X213756250Y-123200000D03*
D21*
X211276021Y-122209984D03*
D24*
X205601245Y-123729996D03*
D22*
X208756250Y-121100000D03*
D23*
X206256250Y-123000000D03*
%TD*%
D25*
%TO.C,REF\u002A\u002A*%
X84931250Y-127000000D03*
%TD*%
%TO.C,REF\u002A\u002A*%
X103981250Y-79375000D03*
%TD*%
%TO.C,REF\u002A\u002A*%
X180181250Y-79375000D03*
%TD*%
%TO.C,REF\u002A\u002A*%
X256381250Y-79375000D03*
%TD*%
%TO.C,REF\u002A\u002A*%
X46831250Y-79375000D03*
%TD*%
%TO.C,REF\u002A\u002A*%
X199231250Y-127000000D03*
%TD*%
D13*
%TO.C,U1*%
X149701250Y-65804250D03*
D14*
X149701250Y-68344250D03*
X149701250Y-70884250D03*
X149701250Y-73424250D03*
X149701250Y-75964250D03*
X149701250Y-78504250D03*
X149701250Y-81044250D03*
X149701250Y-83584250D03*
X149701250Y-86124250D03*
X149701250Y-88664250D03*
X149701250Y-91204250D03*
X149701250Y-93744250D03*
X134461250Y-93744250D03*
X134461250Y-91204250D03*
X134461250Y-88664250D03*
X134461250Y-86124250D03*
X134461250Y-83584250D03*
X134461250Y-81044250D03*
X134461250Y-78504250D03*
X134461250Y-75964250D03*
X134461250Y-73424250D03*
X134461250Y-70884250D03*
X134461250Y-68344250D03*
X134461250Y-65804250D03*
%TD*%
%LPD*%
M02*
